<?xml version="1.0" encoding="utf-8"?>
<!-- Generator: Adobe Illustrator 25.0.0, SVG Export Plug-In . SVG Version: 6.00 Build 0)  -->
<svg version="1.1" id="Layer_1" xmlns="http://www.w3.org/2000/svg" xmlns:xlink="http://www.w3.org/1999/xlink" x="0px" y="0px"
	 viewBox="0 0 24 24" style="enable-background:new 0 0 24 24;" xml:space="preserve">
<style type="text/css">
	.st0{fill-rule:evenodd;clip-rule:evenodd;fill:#FFFFFF;filter:url(#Adobe_OpacityMaskFilter);}
	.st1{mask:url(#mask0_349_7030_1_);}
	.st2{fill-rule:evenodd;clip-rule:evenodd;fill:#AFB7C4;}
</style>
<defs>
	<filter id="Adobe_OpacityMaskFilter" filterUnits="userSpaceOnUse" x="2" y="14.5" width="15.8" height="7.3">
		<feColorMatrix  type="matrix" values="1 0 0 0 0  0 1 0 0 0  0 0 1 0 0  0 0 0 1 0"/>
	</filter>
</defs>
<mask maskUnits="userSpaceOnUse" x="2" y="14.5" width="15.8" height="7.3" id="mask0_349_7030_1_">
	<path class="st0" d="M2,14.5h15.8v7.3H2V14.5z"/>
</mask>
<g class="st1">
	<path class="st2" d="M9.9,16c-4.2,0-6.4,0.7-6.4,2.2c0,1.4,2.1,2.2,6.4,2.2s6.4-0.7,6.4-2.2C16.3,16.7,14.1,16,9.9,16z M9.9,21.8
		c-1.9,0-7.9,0-7.9-3.7c0-3.3,4.5-3.7,7.9-3.7c1.9,0,7.9,0,7.9,3.7C17.8,21.4,13.3,21.8,9.9,21.8z"/>
</g>
<path class="st2" d="M9.9,3.5c-2.1,0-3.8,1.7-3.8,3.8c0,1,0.4,2,1.1,2.7c0.7,0.7,1.7,1.1,2.7,1.1l0,0.8v-0.8c2.1,0,3.8-1.7,3.8-3.8
	S12,3.5,9.9,3.5z M9.9,12.6L9.9,12.6c-1.5,0-2.8-0.6-3.8-1.6c-1-1-1.5-2.3-1.5-3.8C4.6,4.4,6.9,2,9.9,2c2.9,0,5.3,2.4,5.3,5.3
	S12.8,12.6,9.9,12.6z"/>
<path class="st2" d="M19.2,13.4c-0.4,0-0.8-0.3-0.8-0.8v-4c0-0.4,0.3-0.8,0.8-0.8S20,8.3,20,8.7v4C20,13.1,19.6,13.4,19.2,13.4z"/>
<path class="st2" d="M21.2,11.4h-4.1c-0.4,0-0.8-0.3-0.8-0.8c0-0.4,0.3-0.7,0.8-0.7h4.1c0.4,0,0.8,0.3,0.8,0.7
	C22,11.1,21.7,11.4,21.2,11.4z"/>
</svg>
