<?xml version="1.0" encoding="utf-8"?>
<!-- Generator: Adobe Illustrator 25.0.0, SVG Export Plug-In . SVG Version: 6.00 Build 0)  -->
<svg version="1.1" id="Layer_1" xmlns="http://www.w3.org/2000/svg" xmlns:xlink="http://www.w3.org/1999/xlink" x="0px" y="0px"
	 viewBox="0 0 24 24" style="enable-background:new 0 0 24 24;" xml:space="preserve">
<style type="text/css">
	.st0{fill:#AFB7C4;}
</style>
<path class="st0" d="M20,12.3c0,0.4-0.3,0.7-0.6,0.7l-0.1,0h-15c-0.4,0-0.8-0.3-0.8-0.8c0-0.4,0.3-0.7,0.6-0.7l0.1,0h15
	C19.7,11.5,20,11.9,20,12.3z"/>
<path class="st0" d="M10.8,17.8c0.3,0.3,0.3,0.8,0,1.1c-0.3,0.3-0.7,0.3-1,0.1l-0.1-0.1l-6.1-6c-0.3-0.3-0.3-0.7-0.1-1l0.1-0.1l6-6
	c0.3-0.3,0.8-0.3,1.1,0c0.3,0.3,0.3,0.7,0.1,1l-0.1,0.1l-5.5,5.5L10.8,17.8z"/>
</svg>
