<?xml version="1.0" encoding="utf-8"?>
<!-- Generator: Adobe Illustrator 25.0.0, SVG Export Plug-In . SVG Version: 6.00 Build 0)  -->
<svg version="1.1" id="Layer_1" xmlns="http://www.w3.org/2000/svg" xmlns:xlink="http://www.w3.org/1999/xlink" x="0px" y="0px"
	 viewBox="0 0 24 24" style="enable-background:new 0 0 24 24;" xml:space="preserve">
<style type="text/css">
	.st0{fill:none;stroke:#AFB7C4;stroke-width:1.5;stroke-linecap:round;stroke-linejoin:round;}
</style>
<path class="st0" d="M3.1,9.4h17.8"/>
<path class="st0" d="M16.4,13.3L16.4,13.3"/>
<path class="st0" d="M12,13.3L12,13.3"/>
<path class="st0" d="M7.6,13.3L7.6,13.3"/>
<path class="st0" d="M16.4,17.2L16.4,17.2"/>
<path class="st0" d="M12,17.2L12,17.2"/>
<path class="st0" d="M7.6,17.2L7.6,17.2"/>
<path class="st0" d="M16,2v3.3"/>
<path class="st0" d="M8,2v3.3"/>
<path class="st0" d="M16.2,3.6H7.8C4.8,3.6,3,5.2,3,8.2v9C3,20.3,4.8,22,7.8,22h8.5c2.9,0,4.8-1.6,4.8-4.7V8.2
	C21,5.2,19.2,3.6,16.2,3.6z"/>
</svg>
