<?xml version="1.0" encoding="utf-8"?>
<!-- Generator: Adobe Illustrator 25.0.0, SVG Export Plug-In . SVG Version: 6.00 Build 0)  -->
<svg version="1.1" id="Layer_1" xmlns="http://www.w3.org/2000/svg" xmlns:xlink="http://www.w3.org/1999/xlink" x="0px" y="0px"
	 viewBox="0 0 24 24" style="enable-background:new 0 0 24 24;" xml:space="preserve">
<style type="text/css">
	.st0{fill-rule:evenodd;clip-rule:evenodd;fill:#FFFFFF;filter:url(#Adobe_OpacityMaskFilter);}
	.st1{mask:url(#mask0_349_7035_1_);}
	.st2{fill-rule:evenodd;clip-rule:evenodd;fill:#AFB7C4;}
</style>
<defs>
	<filter id="Adobe_OpacityMaskFilter" filterUnits="userSpaceOnUse" x="2" y="5" width="15.5" height="15.5">
		<feColorMatrix  type="matrix" values="1 0 0 0 0  0 1 0 0 0  0 0 1 0 0  0 0 0 1 0"/>
	</filter>
</defs>
<mask maskUnits="userSpaceOnUse" x="2" y="5" width="15.5" height="15.5" id="mask0_349_7035_1_">
	<path class="st0" d="M2,5h15.5v15.5H2V5z"/>
</mask>
<g class="st1">
	<path class="st2" d="M6.8,6.5c-0.4,0-0.7,0-0.8,0c-0.7,0-1.4,0.3-1.9,0.9C3.7,7.9,3.5,8.5,3.5,9.2c0,2.9,0,7.2,0,7.5
		C3.6,18,4.9,19.1,6.4,19c2.8,0,6.8,0,7,0c0.7,0,1.4-0.3,1.9-0.9c0.5-0.5,0.7-1.1,0.7-1.8c0,0,0,0,0,0c0-2.9,0-7.2,0-7.4
		c-0.1-1.4-1.4-2.5-2.9-2.3C11,6.5,8.2,6.5,6.8,6.5z M6.1,20.5c-2.1,0-4-1.6-4.1-3.7c0,0,0-0.2,0-7.5c0-1,0.3-2.1,1.1-2.9
		C3.8,5.5,4.9,5.1,6,5c0.1,0,4.9,0,7,0c2.2-0.2,4.3,1.5,4.5,3.8c0,0.1,0,2.6,0,7.5c0,1.1-0.3,2.1-1.1,2.9c-0.8,0.8-1.8,1.3-3,1.4
		c-0.1,0-5,0-7,0C6.4,20.5,6.3,20.5,6.1,20.5z"/>
</g>
<path class="st2" d="M20.8,18.3c-0.5,0-0.9-0.2-1.3-0.5l-3.3-2.7c-0.3-0.3-0.4-0.7-0.1-1.1c0.3-0.3,0.7-0.4,1.1-0.1l3.3,2.7
	c0.2,0.2,0.4,0.1,0.5,0.1c0.1,0,0.3-0.2,0.3-0.4l0-7.3c0-0.3-0.2-0.4-0.3-0.4c-0.1,0-0.3-0.1-0.5,0.1l-3.3,2.7
	c-0.3,0.3-0.8,0.2-1.1-0.1c-0.3-0.3-0.2-0.8,0.1-1.1l3.3-2.7C20.2,7,21,6.9,21.7,7.2c0.7,0.3,1.1,1,1.1,1.8l0,7.3
	c0,0.8-0.4,1.5-1.1,1.8C21.4,18.3,21.1,18.3,20.8,18.3z"/>
</svg>
