<?xml version="1.0" encoding="utf-8"?>
<!-- Generator: Adobe Illustrator 25.0.0, SVG Export Plug-In . SVG Version: 6.00 Build 0)  -->
<svg version="1.1" id="Layer_1" xmlns="http://www.w3.org/2000/svg" xmlns:xlink="http://www.w3.org/1999/xlink" x="0px" y="0px"
	 viewBox="0 0 24 24" style="enable-background:new 0 0 24 24;" xml:space="preserve">
<style type="text/css">
	.st0{fill:#AFB7C4;}
	.st1{fill:none;stroke:#AFB7C4;stroke-width:1.5;stroke-linecap:round;}
</style>
<path class="st0" d="M3.5,13.6l0.7-0.2L3.5,13.6z M3.5,6.9L2.8,6.7l0,0L3.5,6.9z M20.5,6.9l0.7-0.2l0,0L20.5,6.9z M20.5,13.6
	l-0.7-0.2l0,0L20.5,13.6z M16.8,17l-0.1-0.7L16.8,17z M7.2,17l0.1-0.7L7.2,17z M7.2,3.5L7,2.7L7.2,3.5z M16.8,3.5L17,2.7L16.8,3.5z
	 M3.5,13.7l-0.7,0.2l0,0L3.5,13.7z M20.5,13.7l0.7,0.2l0,0L20.5,13.7z M20.5,6.7l-0.7,0.2l0,0L20.5,6.7z M3.5,6.7l0.7,0.2L3.5,6.7z
	 M12.8,17.9c0-0.4-0.3-0.8-0.8-0.8s-0.8,0.3-0.8,0.8H12.8z M11.2,21c0,0.4,0.3,0.8,0.8,0.8s0.8-0.3,0.8-0.8H11.2z M9.4,20.2
	c-0.4,0-0.8,0.3-0.8,0.8s0.3,0.8,0.8,0.8V20.2z M14.6,21.8c0.4,0,0.8-0.3,0.8-0.8s-0.3-0.8-0.8-0.8V21.8z M19.8,6.9l0,0.2l1.4-0.4
	l0-0.2L19.8,6.9z M19.8,13.3l0,0.2l1.4,0.4l0-0.2L19.8,13.3z M4.2,13.5l0-0.2l-1.4,0.4l0,0.2L4.2,13.5z M4.2,7.1l0-0.2L2.8,6.5
	l0,0.2L4.2,7.1z M4.2,13.3c-0.6-2-0.6-4.2,0-6.2L2.8,6.7c-0.7,2.3-0.7,4.8,0,7.1L4.2,13.3z M19.8,7.1c0.6,2,0.6,4.2,0,6.2l1.4,0.4
	c0.7-2.3,0.7-4.8,0-7.1L19.8,7.1z M16.7,16.3c-3.1,0.6-6.3,0.6-9.3,0L7,17.7c3.3,0.6,6.6,0.6,9.9,0L16.7,16.3z M7.3,4.2
	c3.1-0.6,6.3-0.6,9.3,0L17,2.7c-3.3-0.6-6.6-0.6-9.9,0L7.3,4.2z M7.3,16.3c-1.5-0.3-2.7-1.4-3.1-2.8l-1.4,0.4c0.6,2,2.2,3.4,4.2,3.8
	L7.3,16.3z M17,17.7c2-0.4,3.7-1.9,4.2-3.8l-1.4-0.4c-0.4,1.4-1.6,2.5-3.1,2.8L17,17.7z M16.7,4.2c1.5,0.3,2.7,1.4,3.1,2.8l1.4-0.4
	c-0.6-2-2.2-3.4-4.2-3.8L16.7,4.2z M7,2.7C5,3.1,3.4,4.6,2.8,6.5l1.4,0.4c0.4-1.4,1.6-2.5,3.1-2.8L7,2.7z M11.2,17.9V21h1.5v-3.1
	H11.2z M9.4,21.8h5.3v-1.5H9.4V21.8z"/>
<path class="st1" d="M8,11.2l2.1-1.6c0.4-0.3,0.6-0.4,0.8-0.4c0.2,0,0.4,0.2,0.6,0.6l1.1,1.4c0.3,0.4,0.4,0.6,0.6,0.6
	c0.2,0,0.4-0.1,0.8-0.4L16,9.8"/>
</svg>
