<?xml version="1.0" encoding="utf-8"?>
<!-- Generator: Adobe Illustrator 25.0.0, SVG Export Plug-In . SVG Version: 6.00 Build 0)  -->
<svg version="1.1" id="Layer_1" xmlns="http://www.w3.org/2000/svg" xmlns:xlink="http://www.w3.org/1999/xlink" x="0px" y="0px"
	 viewBox="0 0 24 24" style="enable-background:new 0 0 24 24;" xml:space="preserve">
<style type="text/css">
	.st0{fill-rule:evenodd;clip-rule:evenodd;fill:#AFB7C4;}
</style>
<path class="st0" d="M6.2,3.5c-2.8,0-2.8,0.2-2.8,2.8v0c0,1.1,0,1.9,0.3,2.2C4,8.8,4.8,9,6.2,9s2.2-0.2,2.5-0.5C9,8.2,9,7.4,9,6.3
	C9,3.7,9,3.5,6.2,3.5z M6.2,10.5c-1.7,0-3-0.2-3.6-1C2,8.7,2,7.7,2,6.3l0.8,0H2C2,3.4,2.2,2,6.2,2s4.2,1.4,4.2,4.2
	c0,1.4,0,2.5-0.6,3.2C9.2,10.3,7.9,10.5,6.2,10.5z"/>
<path class="st0" d="M17.2,3.5c-2.8,0-2.8,0.2-2.8,2.8v0c0,1.1,0,1.9,0.3,2.2C15,8.8,15.8,9,17.2,9s2.2-0.2,2.5-0.5
	C20,8.2,20,7.4,20,6.3C20,3.7,20,3.5,17.2,3.5z M17.2,10.5c-1.7,0-3-0.2-3.6-1C13,8.7,13,7.7,13,6.3l0.8,0H13C13,3.4,13.2,2,17.2,2
	s4.2,1.4,4.2,4.2c0,1.4,0,2.5-0.6,3.2C20.2,10.3,18.9,10.5,17.2,10.5z"/>
<path class="st0" d="M6.2,14.5c-2.8,0-2.8,0.2-2.8,2.8v0c0,1.1,0,1.9,0.3,2.2C4,19.8,4.8,20,6.2,20s2.2-0.2,2.5-0.5
	C9,19.2,9,18.4,9,17.3C9,14.7,9,14.5,6.2,14.5z M6.2,21.5c-1.7,0-3-0.2-3.6-1C2,19.7,2,18.7,2,17.3l0.8,0H2C2,14.4,2.2,13,6.2,13
	s4.2,1.4,4.2,4.2c0,1.4,0,2.5-0.6,3.2C9.2,21.3,7.9,21.5,6.2,21.5z"/>
<path class="st0" d="M17.2,14.5c-2.8,0-2.8,0.2-2.8,2.8v0c0,1.1,0,1.9,0.3,2.2c0.3,0.3,1.1,0.5,2.5,0.5s2.2-0.2,2.5-0.5
	c0.3-0.3,0.3-1.1,0.3-2.2C20,14.7,20,14.5,17.2,14.5z M17.2,21.5c-1.7,0-3-0.2-3.6-1C13,19.7,13,18.7,13,17.3l0.8,0H13
	c0-2.9,0.2-4.2,4.2-4.2s4.2,1.4,4.2,4.2c0,1.4,0,2.5-0.6,3.2C20.2,21.3,18.9,21.5,17.2,21.5z"/>
</svg>
