<?xml version="1.0" encoding="utf-8"?>
<!-- Generator: Adobe Illustrator 25.0.0, SVG Export Plug-In . SVG Version: 6.00 Build 0)  -->
<svg version="1.1" id="Layer_1" xmlns="http://www.w3.org/2000/svg" xmlns:xlink="http://www.w3.org/1999/xlink" x="0px" y="0px"
	 viewBox="0 0 24 24" style="enable-background:new 0 0 24 24;" xml:space="preserve">
<style type="text/css">
	.st0{fill-rule:evenodd;clip-rule:evenodd;fill:#FFFFFF;filter:url(#Adobe_OpacityMaskFilter);}
	.st1{mask:url(#mask0_349_7039_1_);}
	.st2{fill-rule:evenodd;clip-rule:evenodd;fill:#AFB7C4;}
</style>
<defs>
	<filter id="Adobe_OpacityMaskFilter" filterUnits="userSpaceOnUse" x="2" y="2" width="20.7" height="20.7">
		<feColorMatrix  type="matrix" values="1 0 0 0 0  0 1 0 0 0  0 0 1 0 0  0 0 0 1 0"/>
	</filter>
</defs>
<mask maskUnits="userSpaceOnUse" x="2" y="2" width="20.7" height="20.7" id="mask0_349_7039_1_">
	<path class="st0" d="M2,2h20.7v20.7H2V2z"/>
</mask>
<g class="st1">
	<path class="st2" d="M7.6,3.5C4.7,3.5,3.5,5,3.5,8.4v7.8c0,3.2,1.8,4.9,4.9,4.9h7.8c3.2,0,4.9-1.8,4.9-4.9v0l0-5
		c0-3.4-1.2-4.7-4.2-4.7h-2.8c-0.9,0-1.9-0.5-2.4-1.2l-0.9-1.2c-0.3-0.4-0.7-0.6-1.2-0.6H7.6z M16.2,22.7H8.4c-4,0-6.4-2.5-6.4-6.4
		V8.4C2,4.2,3.9,2,7.6,2h2c1,0,1.9,0.5,2.4,1.2L13,4.4C13.3,4.8,13.7,5,14.2,5H17c3.9,0,5.7,2,5.7,6.2l0,5
		C22.7,20.2,20.2,22.7,16.2,22.7z"/>
</g>
<path class="st2" d="M16.7,15.7H8c-0.4,0-0.8-0.3-0.8-0.8s0.3-0.8,0.8-0.8h8.7c0.4,0,0.8,0.3,0.8,0.8S17.1,15.7,16.7,15.7z"/>
</svg>
