<?xml version="1.0" encoding="utf-8"?>
<!-- Generator: Adobe Illustrator 25.0.0, SVG Export Plug-In . SVG Version: 6.00 Build 0)  -->
<svg version="1.1" id="Layer_1" xmlns="http://www.w3.org/2000/svg" xmlns:xlink="http://www.w3.org/1999/xlink" x="0px" y="0px"
	 viewBox="0 0 24 24" style="enable-background:new 0 0 24 24;" xml:space="preserve">
<style type="text/css">
	.st0{fill-rule:evenodd;clip-rule:evenodd;fill:'fill';}
	.st1{fill-rule:evenodd;clip-rule:evenodd;fill:#FFFFFF;filter:url(#Adobe_OpacityMaskFilter);}
	.st2{mask:url(#mask0_349_7032_1_);}
</style>
<path class="st0" d="M20.8,21.9h-7.3c-0.4,0-0.8-0.3-0.8-0.8c0-0.4,0.3-0.8,0.8-0.8h7.3c0.4,0,0.8,0.3,0.8,0.8
	C21.5,21.6,21.2,21.9,20.8,21.9z"/>
<defs>
	<filter id="Adobe_OpacityMaskFilter" filterUnits="userSpaceOnUse" x="2" y="3" width="17.2" height="18.9">
		<feColorMatrix  type="matrix" values="1 0 0 0 0  0 1 0 0 0  0 0 1 0 0  0 0 0 1 0"/>
	</filter>
</defs>
<mask maskUnits="userSpaceOnUse" x="2" y="3" width="17.2" height="18.9" id="mask0_349_7032_1_">
	<path class="st1" d="M2,3h17.2v18.9H2V3z"/>
</mask>
<g class="st2">
	<path class="st0" d="M13.1,5L3.7,16.8c-0.2,0.2-0.2,0.5-0.2,0.8l0.7,2.9l3,0c0.3,0,0.6-0.1,0.7-0.4c3.2-4,9.4-11.7,9.5-11.9
		c0.2-0.3,0.2-0.6,0.1-1c-0.1-0.4-0.3-0.7-0.7-0.9c-0.1,0-1.8-1.4-1.8-1.4C14.5,4.3,13.6,4.4,13.1,5z M3.6,21.9
		c-0.3,0-0.6-0.2-0.7-0.6l-0.8-3.5c-0.2-0.7,0-1.5,0.5-2l9.4-11.8c0,0,0,0,0,0c1-1.2,2.9-1.4,4.2-0.4c0,0,1.7,1.3,1.7,1.3
		c0.6,0.4,1.1,1,1.3,1.8c0.2,0.8,0,1.5-0.4,2.2c0,0-0.1,0.1-9.6,12c-0.5,0.6-1.1,0.9-1.9,0.9L3.6,21.9L3.6,21.9z"/>
</g>
<path class="st0" d="M16.2,11.7c-0.2,0-0.3-0.1-0.5-0.2l-5.5-4.2C10,7.1,9.9,6.6,10.2,6.3c0.3-0.3,0.7-0.4,1.1-0.1l5.5,4.2
	c0.3,0.3,0.4,0.7,0.1,1.1C16.7,11.6,16.4,11.7,16.2,11.7z"/>
</svg>
