<?xml version="1.0" encoding="utf-8"?>
<!-- Generator: Adobe Illustrator 25.0.0, SVG Export Plug-In . SVG Version: 6.00 Build 0)  -->
<svg version="1.1" id="Layer_1" xmlns="http://www.w3.org/2000/svg" xmlns:xlink="http://www.w3.org/1999/xlink" x="0px" y="0px"
	 viewBox="0 0 24 24" style="enable-background:new 0 0 24 24;" xml:space="preserve">
<style type="text/css">
	.st0{fill-rule:evenodd;clip-rule:evenodd;fill:#AFB7C4;}
	.st1{fill-rule:evenodd;clip-rule:evenodd;fill:#FFFFFF;filter:url(#Adobe_OpacityMaskFilter);}
	.st2{mask:url(#mask0_344_8174_1_);}
</style>
<path class="st0" d="M15.7,17H8.5c-0.4,0-0.8-0.3-0.8-0.8s0.3-0.8,0.8-0.8h7.2c0.4,0,0.7,0.3,0.7,0.8S16.1,17,15.7,17z"/>
<path class="st0" d="M15.7,12.8H8.5c-0.4,0-0.8-0.3-0.8-0.8s0.3-0.8,0.8-0.8h7.2c0.4,0,0.7,0.3,0.7,0.8S16.1,12.8,15.7,12.8z"/>
<path class="st0" d="M11.3,8.6H8.5c-0.4,0-0.7-0.3-0.7-0.7s0.3-0.8,0.7-0.8h2.8c0.4,0,0.8,0.3,0.8,0.8S11.7,8.6,11.3,8.6z"/>
<defs>
	<filter id="Adobe_OpacityMaskFilter" filterUnits="userSpaceOnUse" x="3" y="2" width="18.2" height="19.9">
		<feColorMatrix  type="matrix" values="1 0 0 0 0  0 1 0 0 0  0 0 1 0 0  0 0 0 1 0"/>
	</filter>
</defs>
<mask maskUnits="userSpaceOnUse" x="3" y="2" width="18.2" height="19.9" id="mask0_344_8174_1_">
	<path class="st1" d="M3,2h18.2v19.9H3V2z"/>
</mask>
<g class="st2">
	<path class="st0" d="M15.9,3.5l-7.7,0C5.9,3.5,4.5,5,4.5,7.4v9.2c0,2.4,1.4,3.9,3.8,3.9l7.7,0c2.3,0,3.7-1.5,3.7-3.9V7.4
		C19.7,4.9,18.3,3.5,15.9,3.5z M8.3,21.9c-3.1,0-5.3-2.2-5.3-5.4V7.4C3,4.1,5,2,8.2,2l7.7,0h0c3.1,0,5.3,2.2,5.3,5.4v9.2
		c0,3.2-2,5.3-5.2,5.4L8.3,21.9z"/>
</g>
</svg>
