<?xml version="1.0" encoding="utf-8"?>
<!-- Generator: Adobe Illustrator 25.0.0, SVG Export Plug-In . SVG Version: 6.00 Build 0)  -->
<svg version="1.1" id="Layer_1" xmlns="http://www.w3.org/2000/svg" xmlns:xlink="http://www.w3.org/1999/xlink" x="0px" y="0px"
	 viewBox="0 0 24 24" style="enable-background:new 0 0 24 24;" xml:space="preserve">
<style type="text/css">
	.st0{fill-rule:evenodd;clip-rule:evenodd;fill:#FFFFFF;filter:url(#Adobe_OpacityMaskFilter);}
	.st1{mask:url(#mask0_344_8149_1_);}
	.st2{fill-rule:evenodd;clip-rule:evenodd;fill:#AFB7C4;}
</style>
<defs>
	<filter id="Adobe_OpacityMaskFilter" filterUnits="userSpaceOnUse" x="2" y="1" width="20.5" height="21.5">
		<feColorMatrix  type="matrix" values="1 0 0 0 0  0 1 0 0 0  0 0 1 0 0  0 0 0 1 0"/>
	</filter>
</defs>
<mask maskUnits="userSpaceOnUse" x="2" y="1" width="20.5" height="21.5" id="mask0_344_8149_1_">
	<path class="st0" d="M2,1h20.5v21.5H2V1z"/>
</mask>
<g class="st1">
	<path class="st2" d="M13.7,15.3c1.2,0,2.2,1,2.2,2.2v3.1c0,0.3,0.2,0.5,0.5,0.5h1.9c1.5,0,2.7-1.2,2.7-2.7V9.6c0-0.5-0.2-1-0.7-1.3
		L13.7,3c-0.9-0.7-2.1-0.7-3,0L4.2,8.3C3.7,8.6,3.5,9.1,3.5,9.6v8.7c0,1.5,1.2,2.7,2.7,2.7h1.9c0.3,0,0.5-0.2,0.5-0.5
		c0-0.1,0-0.1,0-0.2v-2.9c0-1.2,1-2.2,2.2-2.2H13.7z M18.3,22.5h-1.9c-1.1,0-2-0.9-2-2v-3.1c0-0.4-0.3-0.7-0.7-0.7h-2.9
		c-0.4,0-0.7,0.3-0.7,0.7v3.1c0,0.1,0,0.1,0,0.2c-0.1,1-1,1.8-2,1.8H6.2c-2.3,0-4.2-1.9-4.2-4.2V9.6c0-1,0.5-1.9,1.3-2.5l6.5-5.2
		c1.4-1.1,3.4-1.1,4.9,0l6.6,5.2c0.8,0.6,1.2,1.5,1.2,2.5v8.7C22.5,20.6,20.6,22.5,18.3,22.5z"/>
</g>
</svg>
