<?xml version="1.0" encoding="utf-8"?>
<!-- Generator: Adobe Illustrator 25.0.0, SVG Export Plug-In . SVG Version: 6.00 Build 0)  -->
<svg version="1.1" id="Layer_1" xmlns="http://www.w3.org/2000/svg" xmlns:xlink="http://www.w3.org/1999/xlink" x="0px" y="0px"
	 viewBox="0 0 24 24" style="enable-background:new 0 0 24 24;" xml:space="preserve">
<style type="text/css">
	.st0{fill-rule:evenodd;clip-rule:evenodd;fill:#AFB7C4;}
	.st1{fill-rule:evenodd;clip-rule:evenodd;fill:#FFFFFF;filter:url(#Adobe_OpacityMaskFilter);}
	.st2{mask:url(#mask0_349_7045_1_);}
</style>
<path class="st0" d="M12.3,8.5c-1,0-1.8,0.8-1.8,1.8c0,1,0.8,1.7,1.8,1.7s1.8-0.8,1.8-1.7C14,9.3,13.2,8.5,12.3,8.5z M12.3,13.5
	C10.5,13.5,9,12,9,10.3C9,8.5,10.5,7,12.3,7s3.2,1.5,3.2,3.3C15.5,12,14,13.5,12.3,13.5z"/>
<defs>
	<filter id="Adobe_OpacityMaskFilter" filterUnits="userSpaceOnUse" x="4" y="2" width="16.5" height="19.5">
		<feColorMatrix  type="matrix" values="1 0 0 0 0  0 1 0 0 0  0 0 1 0 0  0 0 0 1 0"/>
	</filter>
</defs>
<mask maskUnits="userSpaceOnUse" x="4" y="2" width="16.5" height="19.5" id="mask0_349_7045_1_">
	<path class="st1" d="M4,2h16.5v19.5H4V2z"/>
</mask>
<g class="st2">
	<path class="st0" d="M12.2,3.5c-3.7,0-6.7,3.1-6.7,6.8c0,4.8,5.6,9.4,6.7,9.7c1.1-0.2,6.8-4.9,6.8-9.7C19,6.6,16,3.5,12.2,3.5z
		 M12.2,21.5c-1.8,0-8.2-5.6-8.2-11.2C4,5.7,7.7,2,12.2,2c4.5,0,8.2,3.7,8.2,8.3C20.5,15.9,14,21.5,12.2,21.5z"/>
</g>
</svg>
