<?xml version="1.0" encoding="utf-8"?>
<!-- Generator: Adobe Illustrator 25.0.0, SVG Export Plug-In . SVG Version: 6.00 Build 0)  -->
<svg version="1.1" id="Layer_1" xmlns="http://www.w3.org/2000/svg" xmlns:xlink="http://www.w3.org/1999/xlink" x="0px" y="0px"
	 viewBox="0 0 24 24" style="enable-background:new 0 0 24 24;" xml:space="preserve">
<style type="text/css">
	.st0{fill-rule:evenodd;clip-rule:evenodd;fill:'fill';}
	.st1{fill-rule:evenodd;clip-rule:evenodd;fill:#FFFFFF;filter:url(#Adobe_OpacityMaskFilter);}
	.st2{mask:url(#mask0_344_8237_1_);}
	.st3{fill-rule:evenodd;clip-rule:evenodd;fill:#FFFFFF;filter:url(#Adobe_OpacityMaskFilter_1_);}
	.st4{mask:url(#mask1_344_8237_1_);}
</style>
<path class="st0" d="M11.3,22H6.4C4,22,2,20,2,17.6V6.4C2,4,4,2,6.4,2h4.9c2.4,0,4.4,2,4.4,4.4v0.9c0,0.4-0.3,0.8-0.8,0.8
	c-0.4,0-0.8-0.3-0.8-0.8V6.4c0-1.6-1.3-2.9-2.9-2.9H6.4c-1.6,0-2.9,1.3-2.9,2.9v11.1c0,1.6,1.3,2.9,2.9,2.9h4.9
	c1.6,0,2.9-1.3,2.9-2.9v-0.9c0-0.4,0.3-0.7,0.8-0.7c0.4,0,0.8,0.3,0.8,0.7v0.9C15.7,20,13.8,22,11.3,22z"/>
<defs>
	<filter id="Adobe_OpacityMaskFilter" filterUnits="userSpaceOnUse" x="9" y="11.2" width="13.5" height="1.5">
		<feColorMatrix  type="matrix" values="1 0 0 0 0  0 1 0 0 0  0 0 1 0 0  0 0 0 1 0"/>
	</filter>
</defs>
<mask maskUnits="userSpaceOnUse" x="9" y="11.2" width="13.5" height="1.5" id="mask0_344_8237_1_">
	<path class="st1" d="M9,11.2h13.5v1.5H9V11.2z"/>
</mask>
<g class="st2">
	<path class="st0" d="M21.8,12.8h-12C9.3,12.8,9,12.4,9,12s0.3-0.8,0.8-0.8h12c0.4,0,0.8,0.3,0.8,0.8S22.2,12.8,21.8,12.8z"/>
</g>
<defs>
	<filter id="Adobe_OpacityMaskFilter_1_" filterUnits="userSpaceOnUse" x="18.1" y="8.3" width="4.4" height="7.3">
		<feColorMatrix  type="matrix" values="1 0 0 0 0  0 1 0 0 0  0 0 1 0 0  0 0 0 1 0"/>
	</filter>
</defs>
<mask maskUnits="userSpaceOnUse" x="18.1" y="8.3" width="4.4" height="7.3" id="mask1_344_8237_1_">
	<path class="st3" d="M18.1,8.3h4.4v7.3h-4.4V8.3z"/>
</mask>
<g class="st4">
	<path class="st0" d="M18.9,15.7c-0.2,0-0.4-0.1-0.5-0.2c-0.3-0.3-0.3-0.8,0-1.1l2.4-2.4l-2.4-2.4c-0.3-0.3-0.3-0.8,0-1.1
		c0.3-0.3,0.8-0.3,1.1,0l2.9,2.9c0.1,0.1,0.2,0.3,0.2,0.5s-0.1,0.4-0.2,0.5l-2.9,2.9C19.2,15.6,19.1,15.7,18.9,15.7z"/>
</g>
</svg>
