<?xml version="1.0" encoding="utf-8"?>
<!-- Generator: Adobe Illustrator 25.0.0, SVG Export Plug-In . SVG Version: 6.00 Build 0)  -->
<svg version="1.1" id="Layer_1" xmlns="http://www.w3.org/2000/svg" xmlns:xlink="http://www.w3.org/1999/xlink" x="0px" y="0px"
	 viewBox="0 0 24 24" style="enable-background:new 0 0 24 24;" xml:space="preserve">
<style type="text/css">
	.st0{fill:#AFB7C4;}
	.st1{fill:none;stroke:#AFB7C4;stroke-width:1.5;stroke-linecap:round;}
</style>
<path class="st0" d="M10.9,3.1l-0.2-0.7l0,0L10.9,3.1z M13.1,3.1l-0.2,0.7l0,0L13.1,3.1z M3.4,16.4l0.7-0.2L3.4,16.4z M3.4,10.9
	l0.7,0.2L3.4,10.9z M20.6,10.9l0.7-0.2l0,0L20.6,10.9z M20.6,16.4l0.7,0.2L20.6,16.4z M16,20.6l-0.1-0.7L16,20.6z M8,20.6l0.1-0.7
	L8,20.6z M8.8,6.6l0.1,0.7L8.8,6.6z M15.2,6.6l0.1-0.7L15.2,6.6z M16.3,6.8l-0.1,0.7l0,0L16.3,6.8z M20.5,10.6l-0.7,0.2l0,0
	L20.5,10.6z M7.7,6.8L7.6,6L7.7,6.8z M3.5,10.6l-0.7-0.2l0,0L3.5,10.6z M11.1,3.9c0.6-0.2,1.3-0.2,1.9,0l0.4-1.5
	c-0.9-0.2-1.8-0.2-2.6,0L11.1,3.9z M16.9,7.1c0-2.2-1.5-4.1-3.6-4.6l-0.4,1.5c1.5,0.4,2.5,1.7,2.5,3.2H16.9z M8.6,7.1
	c0-1.5,1-2.8,2.5-3.2l-0.4-1.5C8.6,3,7.1,4.9,7.1,7.1H8.6z M7.8,7.5l1.1-0.2L8.6,5.8L7.6,6L7.8,7.5z M15.1,7.3l1.1,0.2L16.4,6
	l-1.1-0.2L15.1,7.3z M19.8,10.8l0.1,0.3l1.4-0.4l-0.1-0.3L19.8,10.8z M4.1,11.1l0.1-0.3l-1.4-0.4l-0.1,0.3L4.1,11.1z M4.1,16.2
	c-0.5-1.7-0.5-3.4,0-5.1l-1.4-0.4c-0.5,1.9-0.5,4,0,5.9L4.1,16.2z M19.9,11.1c0.5,1.6,0.5,3.4,0,5.1l1.4,0.4c0.5-1.9,0.6-4,0-5.9
	L19.9,11.1z M15.9,19.9c-2.5,0.5-5.2,0.5-7.7,0l-0.3,1.5c2.7,0.5,5.5,0.5,8.3,0L15.9,19.9z M8.9,7.3c2-0.4,4.1-0.4,6.2,0l0.3-1.5
	c-2.2-0.4-4.5-0.4-6.7,0L8.9,7.3z M8.1,19.9c-1.9-0.4-3.5-1.8-4-3.7l-1.4,0.4c0.7,2.4,2.7,4.3,5.2,4.7L8.1,19.9z M16.1,21.4
	c2.5-0.5,4.5-2.3,5.2-4.7l-1.4-0.4c-0.5,1.9-2.1,3.3-4,3.7L16.1,21.4z M16.2,7.5c1.8,0.3,3.2,1.6,3.6,3.3l1.4-0.4
	c-0.6-2.2-2.5-3.9-4.8-4.4L16.2,7.5z M7.6,6c-2.3,0.4-4.2,2.1-4.8,4.4l1.4,0.4c0.5-1.7,1.9-3,3.6-3.3L7.6,6z M3.4,11.8
	c5.6,2.1,11.7,2.1,17.2,0l-0.5-1.4c-5.2,1.9-11,1.9-16.2,0L3.4,11.8z"/>
<path class="st1" d="M8,10.5V14"/>
<path class="st1" d="M16,10.5V14"/>
</svg>
