<?xml version="1.0" encoding="utf-8"?>
<!-- Generator: Adobe Illustrator 25.0.0, SVG Export Plug-In . SVG Version: 6.00 Build 0)  -->
<svg version="1.1" id="Layer_1" xmlns="http://www.w3.org/2000/svg" xmlns:xlink="http://www.w3.org/1999/xlink" x="0px" y="0px"
	 viewBox="0 0 24 24" style="enable-background:new 0 0 24 24;" xml:space="preserve">
<style type="text/css">
	.st0{fill:#AFB7C4;}
	.st1{fill:none;stroke:#AFB7C4;stroke-width:1.5;stroke-linecap:round;}
</style>
<path class="st0" d="M2.9,15.2L3.6,15L2.9,15.2z M2.9,8.8L3.6,9L2.9,8.8z M21.1,8.8l0.7-0.2L21.1,8.8z M21.1,15.2L20.4,15L21.1,15.2
	z M15.1,20.7L15,19.9l0,0L15.1,20.7z M8.9,20.7L9,19.9L8.9,20.7z M8.9,3.3L9,4.1L8.9,3.3z M15.1,3.3l0.2-0.7l0,0L15.1,3.3z
	 M8.4,20.6l-0.2,0.7L8.4,20.6z M15.6,20.6l0.2,0.7l0,0L15.6,20.6z M15.6,3.4l-0.2,0.7l0,0L15.6,3.4z M8.4,3.4L8.3,2.7l0,0L8.4,3.4z
	 M8.6,4.2L9,4.1L8.7,2.6L8.3,2.7L8.6,4.2z M15,4.1l0.5,0.1l0.3-1.5l-0.5-0.1L15,4.1z M15.4,19.8L15,19.9l0.3,1.5l0.5-0.1L15.4,19.8z
	 M9,19.9l-0.5-0.1l-0.3,1.5l0.5,0.1L9,19.9z M3.6,15c-0.5-2-0.5-4,0-5.9L2.2,8.7c-0.5,2.2-0.5,4.5,0,6.7L3.6,15z M20.4,9
	c0.5,2,0.5,4,0,5.9l1.5,0.4c0.5-2.2,0.5-4.5,0-6.7L20.4,9z M15,19.9c-1.9,0.4-4,0.4-5.9,0l-0.3,1.5c2.2,0.5,4.4,0.5,6.6,0L15,19.9z
	 M9,4.1c1.9-0.4,4-0.4,5.9,0l0.3-1.5c-2.2-0.5-4.4-0.5-6.6,0L9,4.1z M8.6,19.8c-2.4-0.5-4.4-2.4-5-4.9l-1.5,0.4c0.7,3,3.1,5.3,6.1,6
	L8.6,19.8z M15.7,21.3c3-0.7,5.4-3,6.1-6L20.4,15c-0.6,2.4-2.5,4.3-5,4.9L15.7,21.3z M15.4,4.2c2.4,0.5,4.4,2.4,5,4.9l1.5-0.4
	c-0.7-3-3.1-5.3-6.1-6L15.4,4.2z M8.3,2.7c-3,0.7-5.4,3-6.1,6L3.6,9c0.6-2.4,2.5-4.3,5-4.9L8.3,2.7z M3.2,9.5h17.6V8H3.2V9.5z"/>
<path class="st1" d="M7,12h4"/>
</svg>
