<?xml version="1.0" encoding="utf-8"?>
<!-- Generator: Adobe Illustrator 25.0.0, SVG Export Plug-In . SVG Version: 6.00 Build 0)  -->
<svg version="1.1" id="Layer_1" xmlns="http://www.w3.org/2000/svg" xmlns:xlink="http://www.w3.org/1999/xlink" x="0px" y="0px"
	 viewBox="0 0 24 24" style="enable-background:new 0 0 24 24;" xml:space="preserve">
<style type="text/css">
	.st0{fill-rule:evenodd;clip-rule:evenodd;fill:#FFFFFF;filter:url(#Adobe_OpacityMaskFilter);}
	.st1{mask:url(#mask0_344_8162_1_);}
	.st2{fill-rule:evenodd;clip-rule:evenodd;fill:#AFB7C4;}
	.st3{fill-rule:evenodd;clip-rule:evenodd;fill:#FFFFFF;filter:url(#Adobe_OpacityMaskFilter_1_);}
	.st4{mask:url(#mask1_344_8162_1_);}
</style>
<defs>
	<filter id="Adobe_OpacityMaskFilter" filterUnits="userSpaceOnUse" x="4" y="14.5" width="15.8" height="7.4">
		<feColorMatrix  type="matrix" values="1 0 0 0 0  0 1 0 0 0  0 0 1 0 0  0 0 0 1 0"/>
	</filter>
</defs>
<mask maskUnits="userSpaceOnUse" x="4" y="14.5" width="15.8" height="7.4" id="mask0_344_8162_1_">
	<path class="st0" d="M4,14.5h15.8v7.4H4V14.5z"/>
</mask>
<g class="st1">
	<path class="st2" d="M11.9,16c-4.3,0-6.4,0.7-6.4,2.2c0,1.5,2.2,2.2,6.4,2.2c4.3,0,6.4-0.7,6.4-2.2C18.3,16.7,16.2,16,11.9,16z
		 M11.9,21.9c-2,0-7.9,0-7.9-3.7c0-3.3,4.5-3.7,7.9-3.7c2,0,7.9,0,7.9,3.7C19.8,21.5,15.3,21.9,11.9,21.9z"/>
</g>
<defs>
	<filter id="Adobe_OpacityMaskFilter_1_" filterUnits="userSpaceOnUse" x="6.6" y="2" width="10.6" height="10.6">
		<feColorMatrix  type="matrix" values="1 0 0 0 0  0 1 0 0 0  0 0 1 0 0  0 0 0 1 0"/>
	</filter>
</defs>
<mask maskUnits="userSpaceOnUse" x="6.6" y="2" width="10.6" height="10.6" id="mask1_344_8162_1_">
	<path class="st3" d="M6.6,2h10.6v10.6H6.6V2z"/>
</mask>
<g class="st4">
	<path class="st2" d="M11.9,3.4C9.8,3.4,8,5.2,8,7.3c0,2.1,1.7,3.9,3.9,3.9l0,0.7v-0.7c2.1,0,3.9-1.7,3.9-3.9
		C15.8,5.2,14.1,3.4,11.9,3.4z M11.9,12.6L11.9,12.6c-3,0-5.3-2.4-5.3-5.3C6.6,4.4,9,2,11.9,2c2.9,0,5.3,2.4,5.3,5.3
		C17.2,10.2,14.8,12.6,11.9,12.6z"/>
</g>
</svg>
