<?xml version="1.0" encoding="utf-8"?>
<!-- Generator: Adobe Illustrator 25.0.0, SVG Export Plug-In . SVG Version: 6.00 Build 0)  -->
<svg version="1.1" id="Layer_1" xmlns="http://www.w3.org/2000/svg" xmlns:xlink="http://www.w3.org/1999/xlink" x="0px" y="0px"
	 viewBox="0 0 24 24" style="enable-background:new 0 0 24 24;" xml:space="preserve">
<style type="text/css">
	.st0{fill-rule:evenodd;clip-rule:evenodd;fill:#FFFFFF;filter:url(#Adobe_OpacityMaskFilter);}
	.st1{mask:url(#mask0_349_7029_1_);}
	.st2{fill-rule:evenodd;clip-rule:evenodd;fill:#AFB7C4;}
</style>
<defs>
	<filter id="Adobe_OpacityMaskFilter" filterUnits="userSpaceOnUse" x="3" y="2" width="17.1" height="19.9">
		<feColorMatrix  type="matrix" values="1 0 0 0 0  0 1 0 0 0  0 0 1 0 0  0 0 0 1 0"/>
	</filter>
</defs>
<mask maskUnits="userSpaceOnUse" x="3" y="2" width="17.1" height="19.9" id="mask0_349_7029_1_">
	<path class="st0" d="M3,2h17.1v19.9H3V2z"/>
</mask>
<g class="st1">
	<path class="st2" d="M7.6,3.5c-1.7,0-3,1.3-3.1,3v10.7c0,1.7,1.3,3.1,3,3.2h8.1c1.7-0.1,3-1.5,3-3.2V8.3l-4.6-4.8H7.6L7.6,3.5z
		 M7.6,21.9H7.5C5,21.8,2.9,19.7,3,17.2V6.5C3.1,4,5.1,2,7.6,2h0h6.6c0.2,0,0.4,0.1,0.5,0.2l5.1,5.3C20,7.7,20.1,7.8,20.1,8v9.2
		c0,2.5-1.9,4.6-4.4,4.7L7.6,21.9z"/>
</g>
<path class="st2" d="M19.3,9h-2.8c-1.8,0-3.3-1.5-3.3-3.3V2.8C13.2,2.3,13.6,2,14,2c0.4,0,0.8,0.3,0.8,0.8v2.9c0,1,0.8,1.8,1.8,1.8
	h2.8c0.4,0,0.8,0.3,0.8,0.8C20,8.6,19.7,9,19.3,9z"/>
<path class="st2" d="M13.8,16.1H8.4c-0.4,0-0.7-0.3-0.7-0.8c0-0.4,0.3-0.8,0.7-0.8h5.4c0.4,0,0.8,0.3,0.8,0.8
	C14.5,15.8,14.2,16.1,13.8,16.1z"/>
<path class="st2" d="M11.7,12.4H8.4c-0.4,0-0.8-0.3-0.8-0.8c0-0.4,0.3-0.8,0.8-0.8h3.4c0.4,0,0.8,0.3,0.8,0.8
	C12.5,12,12.2,12.4,11.7,12.4z"/>
</svg>
