<?xml version="1.0" encoding="utf-8"?>
<!-- Generator: Adobe Illustrator 25.0.0, SVG Export Plug-In . SVG Version: 6.00 Build 0)  -->
<svg version="1.1" id="Layer_1" xmlns="http://www.w3.org/2000/svg" xmlns:xlink="http://www.w3.org/1999/xlink" x="0px" y="0px"
	 viewBox="0 0 24 24" style="enable-background:new 0 0 24 24;" xml:space="preserve">
<style type="text/css">
	.st0{fill-rule:evenodd;clip-rule:evenodd;fill:#AFB7C4;}
</style>
<path class="st0" d="M22.8,14h-21C1.3,14,1,13.6,1,13.2c0-0.4,0.3-0.8,0.8-0.8h21c0.4,0,0.8,0.3,0.8,0.8C23.5,13.6,23.2,14,22.8,14z
	"/>
<path class="st0" d="M20.9,9.7c-0.4,0-0.8-0.3-0.8-0.8V7.5c0-1.6-1.3-3-3-3h-1.2c-0.4,0-0.8-0.3-0.8-0.8S15.5,3,15.9,3h1.2
	c2.5,0,4.5,2,4.5,4.5V9C21.6,9.4,21.3,9.7,20.9,9.7z"/>
<path class="st0" d="M3.6,9.7C3.2,9.7,2.9,9.4,2.9,9V7.5C2.9,5,4.9,3,7.4,3h1.2C9,3,9.3,3.3,9.3,3.8S9,4.5,8.6,4.5H7.4
	c-1.6,0-3,1.3-3,3V9C4.4,9.4,4,9.7,3.6,9.7z"/>
<path class="st0" d="M17.1,21.8h-1.2c-0.4,0-0.8-0.3-0.8-0.8c0-0.4,0.3-0.8,0.8-0.8h1.2c1.6,0,3-1.3,3-3v-4.1c0-0.4,0.3-0.8,0.8-0.8
	c0.4,0,0.8,0.3,0.8,0.8v4.1C21.6,19.7,19.6,21.8,17.1,21.8z"/>
<path class="st0" d="M8.6,21.8H7.4c-2.5,0-4.5-2-4.5-4.5v-4.1c0-0.4,0.3-0.8,0.8-0.8s0.8,0.3,0.8,0.8v4.1c0,1.6,1.3,3,3,3h1.2
	c0.4,0,0.8,0.3,0.8,0.8C9.3,21.4,9,21.8,8.6,21.8z"/>
</svg>
