<?xml version="1.0" encoding="utf-8"?>
<!-- Generator: Adobe Illustrator 25.0.0, SVG Export Plug-In . SVG Version: 6.00 Build 0)  -->
<svg version="1.1" id="Layer_1" xmlns="http://www.w3.org/2000/svg" xmlns:xlink="http://www.w3.org/1999/xlink" x="0px" y="0px"
	 viewBox="0 0 24 24" style="enable-background:new 0 0 24 24;" xml:space="preserve">
<style type="text/css">
	.st0{fill-rule:evenodd;clip-rule:evenodd;fill:#FFFFFF;filter:url(#Adobe_OpacityMaskFilter);}
	.st1{mask:url(#mask0_349_7041_1_);}
	.st2{fill-rule:evenodd;clip-rule:evenodd;fill:#AFB7C4;}
	.st3{fill-rule:evenodd;clip-rule:evenodd;fill:#FFFFFF;filter:url(#Adobe_OpacityMaskFilter_1_);}
	.st4{mask:url(#mask1_349_7041_1_);}
</style>
<defs>
	<filter id="Adobe_OpacityMaskFilter" filterUnits="userSpaceOnUse" x="2" y="2" width="19.5" height="19.5">
		<feColorMatrix  type="matrix" values="1 0 0 0 0  0 1 0 0 0  0 0 1 0 0  0 0 0 1 0"/>
	</filter>
</defs>
<mask maskUnits="userSpaceOnUse" x="2" y="2" width="19.5" height="19.5" id="mask0_349_7041_1_">
	<path class="st0" d="M2,2h19.5v19.5H2V2z"/>
</mask>
<g class="st1">
	<path class="st2" d="M11.7,3.5c-4.5,0-8.2,3.7-8.2,8.2S7.2,20,11.7,20c4.5,0,8.2-3.7,8.2-8.2S16.3,3.5,11.7,3.5z M11.7,21.5
		c-5.4,0-9.7-4.4-9.7-9.7S6.4,2,11.7,2c5.4,0,9.7,4.4,9.7,9.7S17.1,21.5,11.7,21.5z"/>
</g>
<defs>
	<filter id="Adobe_OpacityMaskFilter_1_" filterUnits="userSpaceOnUse" x="17.2" y="17.7" width="5" height="5">
		<feColorMatrix  type="matrix" values="1 0 0 0 0  0 1 0 0 0  0 0 1 0 0  0 0 0 1 0"/>
	</filter>
</defs>
<mask maskUnits="userSpaceOnUse" x="17.2" y="17.7" width="5" height="5" id="mask1_349_7041_1_">
	<path class="st3" d="M17.2,17.7h5v5h-5V17.7z"/>
</mask>
<g class="st4">
	<path class="st2" d="M21.5,22.7c-0.2,0-0.4-0.1-0.5-0.2L17.5,19c-0.3-0.3-0.3-0.8,0-1.1c0.3-0.3,0.8-0.3,1.1,0l3.5,3.5
		c0.3,0.3,0.3,0.8,0,1.1C21.9,22.6,21.7,22.7,21.5,22.7z"/>
</g>
</svg>
