<?xml version="1.0" encoding="utf-8"?>
<!-- Generator: Adobe Illustrator 25.0.0, SVG Export Plug-In . SVG Version: 6.00 Build 0)  -->
<svg version="1.1" id="Layer_1" xmlns="http://www.w3.org/2000/svg" xmlns:xlink="http://www.w3.org/1999/xlink" x="0px" y="0px"
	 viewBox="0 0 24 24" style="enable-background:new 0 0 24 24;" xml:space="preserve">
<style type="text/css">
	.st0{clip-path:url(#SVGID_2_);}
	.st1{fill:#AFB7C4;}
</style>
<g>
	<defs>
		<rect id="SVGID_1_" x="3" y="2" width="18.3" height="20"/>
	</defs>
	<clipPath id="SVGID_2_">
		<use xlink:href="#SVGID_1_"  style="overflow:visible;"/>
	</clipPath>
	<g class="st0">
		<path class="st1" d="M17.8,11.2l-1.3-7.8C16.3,2.2,15.2,2,15.2,2H9.1c-1,0.1-1.2,1-1.2,1l-1.4,8.2c-0.1,1.5,1.3,1.6,1.3,1.6h8.6
			C18,12.7,17.8,11.2,17.8,11.2z M7.9,11.3l1.4-7.8h5.6l1.4,7.8H7.9z"/>
		<path class="st1" d="M21.2,12.2c-0.3-0.8-1.3-0.5-1.3-0.5c-2.1,0.6-2,2.5-2,2.5c-0.6-0.5-1.2-0.5-1.2-0.5l-8.8,0
			c-0.9,0-1.5,0.4-1.5,0.4l-0.1,0.1c0-0.8-0.4-1.5-0.4-1.5c-0.8-1.1-1.8-1.1-1.8-1.1c-1-0.2-1.1,0.7-1.1,0.7c-0.1,0.9,0.8,1,0.8,1
			c0.8,0,0.8,0.8,0.8,0.8v2.3v0.5c0.3,1.4,1.7,1.4,1.7,1.4h5v2.1H8.6c-0.5,0-0.8,0.4-0.8,0.8S8.1,22,8.6,22h2.7H13h2.7
			c0.5,0,0.8-0.4,0.8-0.8s-0.4-0.8-0.8-0.8H13v-2.1h5c0,0,1.2,0,1.6-1.4l0-0.5V14c0.1-0.6,0.7-0.7,0.7-0.7l0.4-0.1
			C21.5,12.9,21.2,12.2,21.2,12.2z M18.1,16.3v0.3L18,16.8h-5h-1.7h-5l-0.2-0.1v-0.3v-0.4l1.1-0.6c0.2-0.2,0.5-0.2,0.5-0.2h8.8
			c0.2,0,0.4,0.1,0.4,0.1l1.2,0.8V16.3z"/>
	</g>
</g>
</svg>
