<?xml version="1.0" encoding="utf-8"?>
<!-- Generator: Adobe Illustrator 25.0.0, SVG Export Plug-In . SVG Version: 6.00 Build 0)  -->
<svg version="1.1" id="Layer_1" xmlns="http://www.w3.org/2000/svg" xmlns:xlink="http://www.w3.org/1999/xlink" x="0px" y="0px"
	 viewBox="0 0 24 24" style="enable-background:new 0 0 24 24;" xml:space="preserve">
<style type="text/css">
	.st0{fill-rule:evenodd;clip-rule:evenodd;fill:#AFB7C4;}
	.st1{fill-rule:evenodd;clip-rule:evenodd;fill:#FFFFFF;filter:url(#Adobe_OpacityMaskFilter);}
	.st2{mask:url(#mask0_349_7042_1_);}
</style>
<path class="st0" d="M17.9,12.1c-0.4,0-0.7-0.3-0.7-0.6c-0.1-0.4,0.2-0.8,0.6-0.8c1-0.1,1.8-1,1.8-2.1c0-1-0.7-1.9-1.8-2.1
	c-0.4-0.1-0.7-0.5-0.6-0.9c0.1-0.4,0.5-0.7,0.9-0.6c1.8,0.3,3,1.8,3,3.6c0,1.8-1.3,3.3-3.1,3.6C18,12.1,17.9,12.1,17.9,12.1z"/>
<defs>
	<filter id="Adobe_OpacityMaskFilter" filterUnits="userSpaceOnUse" x="19" y="14" width="3.8" height="4.5">
		<feColorMatrix  type="matrix" values="1 0 0 0 0  0 1 0 0 0  0 0 1 0 0  0 0 0 1 0"/>
	</filter>
</defs>
<mask maskUnits="userSpaceOnUse" x="19" y="14" width="3.8" height="4.5" id="mask0_349_7042_1_">
	<path class="st1" d="M19,14h3.8v4.5H19V14z"/>
</mask>
<g class="st2">
	<path class="st0" d="M20.9,18.5c-0.3,0-0.6-0.2-0.7-0.5c-0.1-0.4,0-0.8,0.4-1c0.7-0.3,0.7-0.5,0.7-0.7c0-0.4-0.6-0.7-1.7-0.9
		c-0.4-0.1-0.7-0.4-0.6-0.9c0.1-0.4,0.4-0.7,0.9-0.6c2.4,0.4,2.9,1.5,2.9,2.4c0,0.5-0.2,1.5-1.6,2.1C21,18.5,21,18.5,20.9,18.5z"/>
</g>
<path class="st0" d="M11.9,15.9c-2.4,0-5.2,0.3-5.2,1.7c0,1.4,2.8,1.7,5.2,1.7c2.4,0,5.2-0.3,5.2-1.7C17.1,16.2,14.3,15.9,11.9,15.9
	z M11.9,20.8c-1.7,0-6.7,0-6.7-3.2c0-3.2,5-3.2,6.7-3.2s6.7,0,6.7,3.2C18.6,20.8,13.7,20.8,11.9,20.8z"/>
<path class="st0" d="M11.9,5.5c-1.7,0-3.1,1.4-3.1,3.1c0,0.8,0.3,1.6,0.9,2.2c0.6,0.6,1.3,0.9,2.2,0.9l0,0.8v-0.8
	c1.7,0,3.1-1.4,3.1-3.1C15,6.9,13.6,5.5,11.9,5.5z M11.9,13.1L11.9,13.1c-1.2,0-2.4-0.5-3.2-1.3c-0.9-0.9-1.3-2-1.3-3.2
	c0-2.5,2-4.6,4.6-4.6c2.5,0,4.6,2.1,4.6,4.6S14.4,13.1,11.9,13.1z"/>
<path class="st0" d="M5.9,12.1c0,0-0.1,0-0.1,0C4,11.9,2.7,10.4,2.7,8.6c0-1.8,1.3-3.3,3-3.6c0.4-0.1,0.8,0.2,0.9,0.6
	C6.6,6,6.3,6.4,5.9,6.5c-1,0.2-1.8,1.1-1.8,2.1c0,1.1,0.8,2,1.8,2.1c0.4,0.1,0.7,0.4,0.6,0.8C6.6,11.9,6.3,12.1,5.9,12.1z"/>
<path class="st0" d="M2.9,18.5c-0.1,0-0.2,0-0.3,0C1.2,17.9,1,16.9,1,16.4c0-0.9,0.5-2,2.9-2.4c0.4-0.1,0.8,0.2,0.9,0.6
	c0.1,0.4-0.2,0.8-0.6,0.9c-1.1,0.2-1.7,0.5-1.7,0.9c0,0.1,0,0.4,0.7,0.7c0.4,0.1,0.6,0.6,0.4,1C3.5,18.3,3.2,18.5,2.9,18.5z"/>
</svg>
