<?xml version="1.0" encoding="utf-8"?>
<!-- Generator: Adobe Illustrator 25.0.0, SVG Export Plug-In . SVG Version: 6.00 Build 0)  -->
<svg version="1.1" id="Layer_1" xmlns="http://www.w3.org/2000/svg" xmlns:xlink="http://www.w3.org/1999/xlink" x="0px" y="0px"
	 viewBox="0 0 24 24" style="enable-background:new 0 0 24 24;" xml:space="preserve">
<style type="text/css">
	.st0{fill-rule:evenodd;clip-rule:evenodd;fill:'fill';}
</style>
<path class="st0" d="M12.2,22c-1.4,0-2.7,0-4,0c-1.7,0-2.8-1.1-3-2.8c-0.3-2.8-0.9-9.5-0.9-9.6c0-0.4,0.3-0.8,0.7-0.8
	c0.4,0,0.8,0.3,0.8,0.7c0,0.1,0.5,6.7,0.9,9.6c0.1,1,0.6,1.5,1.6,1.5c2.5,0.1,5.1,0.1,7.8,0c1,0,1.5-0.5,1.6-1.5
	c0.3-2.8,0.9-9.5,0.9-9.5c0-0.4,0.4-0.7,0.8-0.7c0.4,0,0.7,0.4,0.7,0.8c0,0.1-0.5,6.8-0.9,9.6c-0.2,1.7-1.3,2.8-3.1,2.8
	C14.8,22,13.5,22,12.2,22z"/>
<path class="st0" d="M20.7,7h-17C3.3,7,3,6.7,3,6.2s0.3-0.8,0.8-0.8h17c0.4,0,0.8,0.3,0.8,0.8S21.1,7,20.7,7z"/>
<path class="st0" d="M17.4,7c-1.1,0-2.1-0.8-2.3-1.9l-0.2-1.2c-0.1-0.2-0.3-0.3-0.5-0.3h-4.2c-0.2,0-0.5,0.2-0.5,0.4L9.4,5.1
	C9.1,6.2,8.2,7,7,7C6.6,7,6.3,6.7,6.3,6.2c0-0.4,0.3-0.8,0.8-0.8c0.4,0,0.8-0.3,0.9-0.7l0.2-1.2C8.4,2.6,9.2,2,10.1,2h4.2
	c0.9,0,1.7,0.6,2,1.5l0.3,1.3c0.1,0.4,0.5,0.7,0.9,0.7c0.4,0,0.8,0.3,0.8,0.8C18.2,6.7,17.9,7,17.4,7z"/>
</svg>
