<?xml version="1.0" encoding="utf-8"?>
<!-- Generator: Adobe Illustrator 25.0.0, SVG Export Plug-In . SVG Version: 6.00 Build 0)  -->
<svg version="1.1" id="Layer_1" xmlns="http://www.w3.org/2000/svg" xmlns:xlink="http://www.w3.org/1999/xlink" x="0px" y="0px"
	 viewBox="0 0 24 24" style="enable-background:new 0 0 24 24;" xml:space="preserve">
<style type="text/css">
	.st0{fill-rule:evenodd;clip-rule:evenodd;fill:#1C2560;}
</style>
<path class="st0" d="M16.4,2.8l0,0.7c2.8,0.2,4.6,2.1,4.6,5l0,8.4c0,3.1-2,5.1-5.1,5.1l-7.7,0C5,22,3,20,3,16.9l0-8.3
	c0-2.9,1.8-4.8,4.5-5l0-0.7C7.5,2.3,7.8,2,8.3,2C8.7,2,9,2.3,9,2.8l0,0.7l5.9,0l0-0.7c0-0.4,0.3-0.8,0.8-0.8
	C16.1,2,16.4,2.3,16.4,2.8z M4.5,8.9l14.9,0V8.5c0-2.1-1.1-3.3-3.1-3.4l0,0.8c0,0.4-0.3,0.8-0.8,0.8c-0.4,0-0.8-0.3-0.8-0.8l0-0.8
	L9,5l0,0.8c0,0.4-0.3,0.8-0.8,0.8c-0.4,0-0.8-0.3-0.8-0.8l0-0.8c-1.9,0.2-3,1.3-3,3.5L4.5,8.9z M15.2,13.4L15.2,13.4
	c0,0.5,0.4,0.8,0.8,0.8c0.4,0,0.8-0.4,0.8-0.9c0-0.4-0.4-0.8-0.8-0.8C15.6,12.6,15.2,12.9,15.2,13.4z M16.1,17.9
	c-0.5,0-0.8-0.4-0.8-0.8c0-0.5,0.4-0.8,0.8-0.9h0c0.5,0,0.8,0.4,0.8,0.8C16.9,17.5,16.5,17.9,16.1,17.9z M11.2,13.4
	c0,0.5,0.4,0.8,0.9,0.8c0.4,0,0.8-0.4,0.8-0.9c0-0.4-0.4-0.8-0.8-0.8C11.5,12.6,11.2,13,11.2,13.4z M12,17.8c-0.5,0-0.8-0.3-0.9-0.8
	c0-0.5,0.4-0.8,0.8-0.9c0.4,0,0.8,0.3,0.8,0.8C12.8,17.4,12.5,17.8,12,17.8z M7.1,13.5c0,0.5,0.4,0.8,0.9,0.8c0.4,0,0.8-0.4,0.8-0.9
	c0-0.4-0.4-0.8-0.8-0.8C7.5,12.6,7.1,13,7.1,13.5z M8,17.9c-0.5,0-0.8-0.3-0.9-0.8c0-0.5,0.4-0.8,0.8-0.9c0.4,0,0.8,0.3,0.8,0.8
	C8.8,17.5,8.4,17.8,8,17.9z"/>
</svg>
