<?xml version="1.0" encoding="utf-8"?>
<!-- Generator: Adobe Illustrator 25.0.0, SVG Export Plug-In . SVG Version: 6.00 Build 0)  -->
<svg version="1.1" id="Layer_1" xmlns="http://www.w3.org/2000/svg" xmlns:xlink="http://www.w3.org/1999/xlink" x="0px" y="0px"
	 viewBox="0 0 24 24" style="enable-background:new 0 0 24 24;" xml:space="preserve">
<style type="text/css">
	.st0{fill-rule:evenodd;clip-rule:evenodd;fill:#1C2560;}
</style>
<path class="st0" d="M16.3,3.4c-2.8-0.6-5.8-0.6-8.6,0C5.9,3.8,4.5,5.2,4,7l0,0.2c-0.6,2.1-0.6,4.4,0,6.5l0,0.2
	c0.5,1.8,1.9,3.2,3.7,3.5c1.2,0.2,2.4,0.4,3.6,0.4v1.9H9.7c-0.4,0-0.7,0.3-0.7,0.7S9.3,21,9.7,21h4.6c0.4,0,0.7-0.3,0.7-0.7
	s-0.3-0.7-0.7-0.7h-1.6v-1.9c1.2,0,2.4-0.2,3.6-0.4c1.8-0.4,3.2-1.7,3.7-3.5l0-0.2c0.6-2.1,0.6-4.4,0-6.5L20,7
	C19.5,5.2,18.1,3.8,16.3,3.4z M14,11.5C14.1,11.5,14.1,11.5,14,11.5l1.5-1.4c0.2-0.2,0.2-0.6,0-0.8c-0.2-0.2-0.6-0.3-0.8,0l-1.5,1.4
	c-0.1,0.1-0.2,0.2-0.3,0.3c-0.1-0.1-0.1-0.2-0.2-0.4l-0.7-1c0,0,0,0,0,0C12,9.3,11.9,9.1,11.7,9c-0.1-0.2-0.3-0.3-0.6-0.4
	c-0.3,0-0.5,0.1-0.7,0.2c-0.2,0.1-0.3,0.3-0.5,0.4c0,0,0,0,0,0l-1.5,1.4c-0.2,0.2-0.2,0.6,0,0.8c0.2,0.2,0.6,0.3,0.8,0l1.5-1.4
	c0.1-0.1,0.2-0.2,0.3-0.3c0.1,0.1,0.1,0.2,0.2,0.4l0.7,1c0,0,0,0,0,0c0,0,0,0,0,0c0.1,0.2,0.2,0.4,0.4,0.5c0.1,0.2,0.3,0.3,0.6,0.4
	c0.3,0,0.5-0.1,0.7-0.2C13.7,11.8,13.9,11.7,14,11.5z"/>
</svg>
