<?xml version="1.0" encoding="utf-8"?>
<!-- Generator: Adobe Illustrator 25.0.0, SVG Export Plug-In . SVG Version: 6.00 Build 0)  -->
<svg version="1.1" id="Layer_1" xmlns="http://www.w3.org/2000/svg" xmlns:xlink="http://www.w3.org/1999/xlink" x="0px" y="0px"
	 viewBox="0 0 24 24" style="enable-background:new 0 0 24 24;" xml:space="preserve">
<style type="text/css">
	.st0{fill-rule:evenodd;clip-rule:evenodd;fill:'fill';}
</style>
<path class="st0" d="M4.5,2h3.4c1.4,0,2.5,1.2,2.5,2.6V8c0,1.4-1.1,2.6-2.5,2.6H4.5C3.1,10.5,2,9.4,2,8V4.6C2,3.2,3.1,2,4.5,2z
	 M4.5,13.5h3.4c1.4,0,2.5,1.1,2.5,2.6v3.4c0,1.4-1.1,2.6-2.5,2.6H4.5C3.1,22,2,20.8,2,19.4V16C2,14.6,3.1,13.5,4.5,13.5z M19.5,2
	h-3.4c-1.4,0-2.5,1.2-2.5,2.6V8c0,1.4,1.1,2.6,2.5,2.6h3.4c1.4,0,2.5-1.1,2.5-2.6V4.6C22,3.2,20.9,2,19.5,2z M16.1,13.5h3.4
	c1.4,0,2.5,1.1,2.5,2.6v3.4c0,1.4-1.1,2.6-2.5,2.6h-3.4c-1.4,0-2.5-1.1-2.5-2.6V16C13.5,14.6,14.7,13.5,16.1,13.5z"/>
</svg>
