<?xml version="1.0" encoding="utf-8"?>
<!-- Generator: Adobe Illustrator 25.0.0, SVG Export Plug-In . SVG Version: 6.00 Build 0)  -->
<svg version="1.1" id="Layer_1" xmlns="http://www.w3.org/2000/svg" xmlns:xlink="http://www.w3.org/1999/xlink" x="0px" y="0px"
	 viewBox="0 0 24 24" style="enable-background:new 0 0 24 24;" xml:space="preserve">
<style type="text/css">
	.st0{fill-rule:evenodd;clip-rule:evenodd;fill:#1C2560;}
</style>
<path class="st0" d="M13.4,4.9h3.1c3.7,0,5.5,2,5.5,6v4.9c0,3.9-2.4,6.2-6.3,6.2H8.2C4.4,22,2,19.6,2,15.8V8.2C2,4.1,3.8,2,7.5,2H9
	c0.9,0,1.8,0.4,2.4,1.2l0.9,1.2C12.6,4.7,13,4.9,13.4,4.9z M7.4,15.3h9.3c0.4,0,0.7-0.3,0.7-0.8c0-0.4-0.3-0.8-0.7-0.8H7.4
	c-0.4,0-0.8,0.3-0.8,0.8C6.6,15,6.9,15.3,7.4,15.3z"/>
</svg>
