<?xml version="1.0" encoding="utf-8"?>
<!-- Generator: Adobe Illustrator 25.0.0, SVG Export Plug-In . SVG Version: 6.00 Build 0)  -->
<svg version="1.1" id="Layer_1" xmlns="http://www.w3.org/2000/svg" xmlns:xlink="http://www.w3.org/1999/xlink" x="0px" y="0px"
	 viewBox="0 0 24 24" style="enable-background:new 0 0 24 24;" xml:space="preserve">
<style type="text/css">
	.st0{fill-rule:evenodd;clip-rule:evenodd;fill:'fill';}
</style>
<path class="st0" d="M9.4,20l8.8-11.4c0.5-0.6,0.6-1.3,0.5-2c-0.1-0.7-0.5-1.3-1.1-1.8L16,3.7c-1.3-1-2.9-0.9-3.8,0.3l-1,1.3
	c-0.1,0.2-0.1,0.4,0.1,0.5c0,0,2.5,2,2.5,2C14,8,14.2,8.2,14.2,8.4c0.1,0.5-0.3,1-0.8,1c-0.2,0-0.5,0-0.6-0.2l-2.6-2.1
	C10,7.1,9.8,7.1,9.7,7.3l-6.2,8.1c-0.4,0.5-0.5,1.2-0.4,1.8l0.8,3.5c0,0.2,0.2,0.3,0.4,0.3l3.5,0C8.4,20.8,9,20.5,9.4,20z M14.3,19
	H20c0.6,0,1,0.5,1,1c0,0.6-0.5,1-1,1h-5.7c-0.6,0-1-0.5-1-1C13.3,19.4,13.7,19,14.3,19z"/>
</svg>
