<?xml version="1.0" encoding="utf-8"?>
<!-- Generator: Adobe Illustrator 25.0.0, SVG Export Plug-In . SVG Version: 6.00 Build 0)  -->
<svg version="1.1" id="Layer_1" xmlns="http://www.w3.org/2000/svg" xmlns:xlink="http://www.w3.org/1999/xlink" x="0px" y="0px"
	 viewBox="0 0 24 24" style="enable-background:new 0 0 24 24;" xml:space="preserve">
<style type="text/css">
	.st0{fill-rule:evenodd;clip-rule:evenodd;fill:#1C2560;}
</style>
<path class="st0" d="M7.8,2h8.4C19.3,2,21,3.8,21,6.8v10.3c0,3.1-1.7,4.8-4.8,4.8H7.8c-3,0-4.8-1.7-4.8-4.8V6.8C3,3.8,4.8,2,7.8,2z
	 M8.1,6.7L8.1,6.7l3,0c0.4,0,0.8,0.3,0.8,0.8c0,0.4-0.4,0.8-0.8,0.8h-3c-0.4,0-0.8-0.4-0.8-0.8S7.6,6.7,8.1,6.7z M8.1,12.7h7.8
	c0.4,0,0.8-0.3,0.8-0.8s-0.4-0.8-0.8-0.8H8.1c-0.4,0-0.8,0.4-0.8,0.8S7.6,12.7,8.1,12.7z M8.1,17.3h7.8c0.4,0,0.7-0.4,0.7-0.8
	c0-0.4-0.3-0.8-0.7-0.8H8.1c-0.3,0-0.6,0.1-0.8,0.4c-0.2,0.2-0.2,0.6,0,0.8C7.5,17.2,7.8,17.4,8.1,17.3z"/>
</svg>
