<?xml version="1.0" encoding="utf-8"?>
<!-- Generator: Adobe Illustrator 25.0.0, SVG Export Plug-In . SVG Version: 6.00 Build 0)  -->
<svg version="1.1" id="Layer_1" xmlns="http://www.w3.org/2000/svg" xmlns:xlink="http://www.w3.org/1999/xlink" x="0px" y="0px"
	 viewBox="0 0 24 24" style="enable-background:new 0 0 24 24;" xml:space="preserve">
<style type="text/css">
	.st0{fill:#1C2560;}
</style>
<path class="st0" d="M9.1,20.8v-3.1c0-0.8,0.6-1.4,1.4-1.4h2.9c0.4,0,0.7,0.1,1,0.4c0.3,0.3,0.4,0.6,0.4,1v3.1
	c0,0.3,0.1,0.6,0.4,0.9c0.2,0.2,0.5,0.4,0.9,0.4h2c0.9,0,1.8-0.4,2.4-1c0.6-0.6,1-1.5,1-2.4V9.9c0-0.7-0.3-1.4-0.9-1.9l-6.7-5.3
	c-1.2-0.9-2.8-0.9-3.9,0.1L3.5,8c-0.6,0.5-0.9,1.2-1,1.9v8.7C2.5,20.5,4,22,6,22h1.9C8.6,22,9.1,21.5,9.1,20.8L9.1,20.8z"/>
</svg>
