<?xml version="1.0" encoding="utf-8"?>
<!-- Generator: Adobe Illustrator 25.0.0, SVG Export Plug-In . SVG Version: 6.00 Build 0)  -->
<svg version="1.1" id="Layer_1" xmlns="http://www.w3.org/2000/svg" xmlns:xlink="http://www.w3.org/1999/xlink" x="0px" y="0px"
	 viewBox="0 0 24 24" style="enable-background:new 0 0 24 24;" xml:space="preserve">
<style type="text/css">
	.st0{fill-rule:evenodd;clip-rule:evenodd;fill:'fill';}
</style>
<path class="st0" d="M3.5,10.3C3.5,5.7,7.3,2,12,2c4.7,0,8.5,3.7,8.5,8.3c0,2.3-0.8,4.5-2.2,6.3c-1.5,2-3.4,3.8-5.5,5.1
	c-0.5,0.3-0.9,0.3-1.5,0c-2.1-1.4-4-3.1-5.5-5.1C4.3,14.8,3.5,12.6,3.5,10.3z M9.2,10.6c0,1.5,1.3,2.8,2.8,2.8
	c1.5,0,2.8-1.2,2.8-2.8c0-1.5-1.3-2.8-2.8-2.8C10.5,7.8,9.2,9,9.2,10.6z"/>
</svg>
