<?xml version="1.0" encoding="utf-8"?>
<!-- Generator: Adobe Illustrator 25.0.0, SVG Export Plug-In . SVG Version: 6.00 Build 0)  -->
<svg version="1.1" id="Layer_1" xmlns="http://www.w3.org/2000/svg" xmlns:xlink="http://www.w3.org/1999/xlink" x="0px" y="0px"
	 viewBox="0 0 24 24" style="enable-background:new 0 0 24 24;" xml:space="preserve">
<style type="text/css">
	.st0{fill-rule:evenodd;clip-rule:evenodd;fill:#1C2560;}
</style>
<path class="st0" d="M9.9,11.2c-0.4,0-0.8,0.3-0.8,0.8c0,0.4,0.3,0.8,0.8,0.8H16v4.8c0,2.5-2,4.5-4.5,4.5h-5C4,22,2,20,2,17.6V6.4
	C2,4,4,2,6.5,2h5C14,2,16,4,16,6.4v4.8H9.9z M19.6,8.5l2.9,2.9c0.1,0.1,0.2,0.3,0.2,0.6c0,0.2-0.1,0.4-0.2,0.5l-2.9,2.9
	c-0.1,0.1-0.4,0.2-0.5,0.2c-0.2,0-0.4-0.1-0.6-0.2c-0.3-0.3-0.3-0.8,0-1.1l1.6-1.6H16v-1.5h4.1l-1.6-1.6c-0.3-0.3-0.3-0.8,0-1.1
	C18.8,8.2,19.3,8.2,19.6,8.5z"/>
</svg>
