<?xml version="1.0" encoding="utf-8"?>
<!-- Generator: Adobe Illustrator 25.0.0, SVG Export Plug-In . SVG Version: 6.00 Build 0)  -->
<svg version="1.1" id="Layer_1" xmlns="http://www.w3.org/2000/svg" xmlns:xlink="http://www.w3.org/1999/xlink" x="0px" y="0px"
	 viewBox="0 0 24 24" style="enable-background:new 0 0 24 24;" xml:space="preserve">
<style type="text/css">
	.st0{fill-rule:evenodd;clip-rule:evenodd;fill:'fill';}
	.st1{fill:'fill';}
</style>
<path class="st0" d="M16.5,6.6c-0.3-1.6-1.6-3-3.2-3.4c-0.8-0.2-1.6-0.2-2.5,0C9.1,3.6,7.9,4.9,7.5,6.6C5.7,7,4.3,8.3,3.6,10
	c1.2,0.4,2.4,0.7,3.8,1v-0.3c0-0.4,0.3-0.7,0.7-0.7c0.4,0,0.7,0.3,0.7,0.7v0.5c2,0.2,4.2,0.2,6.2,0v-0.5c0-0.4,0.3-0.7,0.7-0.7
	c0.4,0,0.7,0.3,0.7,0.7V11c1.4-0.2,2.7-0.5,3.8-1C19.7,8.3,18.3,7,16.5,6.6z M12.9,4.5c-0.6-0.1-1.1-0.1-1.7,0
	c-0.9,0.2-1.7,0.9-2,1.7c1.9-0.3,3.8-0.3,5.7,0C14.5,5.4,13.8,4.8,12.9,4.5z"/>
<path class="st1" d="M15.1,12.6V14c0,0.4,0.3,0.7,0.7,0.7c0.4,0,0.7-0.3,0.7-0.7v-1.6c1.5-0.2,2.9-0.6,4.2-1
	c0.4,1.6,0.3,3.3-0.1,4.8c-0.6,2.2-2.5,3.9-4.8,4.4c-2.5,0.5-5.1,0.5-7.6,0c-2.3-0.4-4.2-2.2-4.8-4.4c-0.4-1.6-0.5-3.2-0.1-4.8
	c1.3,0.5,2.7,0.8,4.2,1V14c0,0.4,0.3,0.7,0.7,0.7c0.4,0,0.7-0.3,0.7-0.7v-1.4C10.9,12.8,13.1,12.8,15.1,12.6z"/>
</svg>
