<?xml version="1.0" encoding="utf-8"?>
<!-- Generator: Adobe Illustrator 25.0.0, SVG Export Plug-In . SVG Version: 6.00 Build 0)  -->
<svg version="1.1" id="Layer_1" xmlns="http://www.w3.org/2000/svg" xmlns:xlink="http://www.w3.org/1999/xlink" x="0px" y="0px"
	 viewBox="0 0 24 24" style="enable-background:new 0 0 24 24;" xml:space="preserve">
<style type="text/css">
	.st0{fill-rule:evenodd;clip-rule:evenodd;fill:#1C2560;}
</style>
<path class="st0" d="M15.5,3.3c-2-0.4-4.1-0.4-6.1,0L9.1,3.4C6.7,3.9,4.8,5.5,3.9,7.6C3.7,7.9,4,8.2,4.3,8.2h16.4
	c0.3,0,0.6-0.3,0.4-0.7c-1-2.1-2.9-3.6-5.2-4.1L15.5,3.3z M3.4,15.1c-0.4-1.6-0.5-3.3-0.2-4.9c0-0.2,0.2-0.4,0.5-0.4h17.8
	c0.2,0,0.4,0.2,0.5,0.4c0.2,1.6,0.2,3.3-0.2,4.9c-0.7,2.8-2.9,4.9-5.7,5.5l-0.4,0.1c-2,0.4-4.1,0.4-6.1,0l-0.4-0.1
	C6.3,20,4.1,17.8,3.4,15.1z M7.4,11.2c-0.4,0-0.8,0.3-0.8,0.8c0,0.4,0.3,0.8,0.8,0.8h4c0.4,0,0.8-0.3,0.8-0.8c0-0.4-0.3-0.8-0.8-0.8
	H7.4z"/>
</svg>
