<?xml version="1.0" encoding="utf-8"?>
<!-- Generator: Adobe Illustrator 25.0.0, SVG Export Plug-In . SVG Version: 6.00 Build 0)  -->
<svg version="1.1" id="Layer_1" xmlns="http://www.w3.org/2000/svg" xmlns:xlink="http://www.w3.org/1999/xlink" x="0px" y="0px"
	 viewBox="0 0 49 48" style="enable-background:new 0 0 49 48;" xml:space="preserve">
<style type="text/css">
	.st0{clip-path:url(#SVGID_2_);}
	.st1{fill:#FFF2CE;stroke:#FFB800;stroke-width:2;}
	.st2{clip-path:url(#SVGID_4_);}
	.st3{fill:#FFB800;}
</style>
<g>
	<defs>
		<rect id="SVGID_1_" x="0.9" width="48" height="48"/>
	</defs>
	<clipPath id="SVGID_2_">
		<use xlink:href="#SVGID_1_"  style="overflow:visible;"/>
	</clipPath>
	<g class="st0">
		<path class="st1" d="M24.9,1L24.9,1c12.7,0,23,10.3,23,23l0,0c0,12.7-10.3,23-23,23l0,0c-12.7,0-23-10.3-23-23l0,0
			C1.9,11.3,12.2,1,24.9,1z"/>
		<g>
			<defs>
				<rect id="SVGID_3_" x="15.9" y="14" width="18.3" height="20"/>
			</defs>
			<clipPath id="SVGID_4_">
				<use xlink:href="#SVGID_3_"  style="overflow:visible;"/>
			</clipPath>
			<g class="st2">
				<path class="st3" d="M28.1,14c0.1,0,0.2,0.1,0.4,0.1c0.5,0.2,0.8,0.6,0.8,1.2c0.4,2.6,0.9,5.2,1.3,7.7c0.2,1-0.5,1.8-1.5,1.8
					c-2.7,0-5.3,0-8,0c-0.2,0-0.4,0-0.6,0c-0.8-0.2-1.3-0.9-1.2-1.7c0.4-2.4,0.8-4.8,1.3-7.2c0-0.2,0.1-0.5,0.1-0.7
					c0.1-0.6,0.5-1,1.1-1.1c0,0,0.1,0,0.1,0C24,14,26,14,28.1,14z"/>
				<path class="st3" d="M21.3,34c-0.4-0.1-0.6-0.4-0.7-0.8c-0.1-0.5,0.3-0.9,0.9-0.9c0.8,0,1.6,0,2.4,0c0.1,0,0.1,0,0.2,0
					c0-0.7,0-1.4,0-2.1c-0.1,0-0.1,0-0.2,0c-1.6,0-3.2,0-4.8,0c-0.8,0-1.7-0.7-1.7-1.6c0-0.8,0-1.6,0-2.4c0-0.6-0.3-0.9-0.9-0.9
					c-0.5,0-0.8-0.4-0.8-0.9c0-0.5,0.4-0.8,0.9-0.8c1.3,0.1,2.3,1,2.4,2.4c0,0.1,0,0.1,0,0.2c0.1,0,0.1,0,0.1-0.1
					c0.4-0.3,0.8-0.4,1.3-0.4c2.9,0,5.8,0,8.7,0c0.5,0,0.9,0.1,1.3,0.4c0,0,0.1,0,0.1,0.1c0-0.2,0-0.3,0-0.5
					c0.2-1.2,1.2-2.1,2.4-2.1c0.4,0,0.7,0.2,0.8,0.6c0,0,0,0.1,0,0.1c0,0.1,0,0.1,0,0.2c0,0.1,0,0.1,0,0.1c-0.1,0.3-0.4,0.6-0.7,0.6
					c-0.6,0-0.9,0.3-0.9,1c0,0.8,0,1.6,0,2.4c0,1-0.9,1.7-1.7,1.7c-1.6,0-3.2,0-4.7,0c-0.1,0-0.2,0-0.2,0c0,0.7,0,1.4,0,2.1
					c0.1,0,0.2,0,0.2,0c0.8,0,1.6,0,2.4,0c0.6,0,1,0.6,0.8,1.2c-0.1,0.3-0.3,0.4-0.6,0.5C26.3,34,23.8,34,21.3,34z"/>
			</g>
		</g>
	</g>
</g>
</svg>
