<?xml version="1.0" encoding="utf-8"?>
<!-- Generator: Adobe Illustrator 25.0.0, SVG Export Plug-In . SVG Version: 6.00 Build 0)  -->
<svg version="1.1" id="Layer_1" xmlns="http://www.w3.org/2000/svg" xmlns:xlink="http://www.w3.org/1999/xlink" x="0px" y="0px"
	 viewBox="0 0 24 24" style="enable-background:new 0 0 24 24;" xml:space="preserve">
<style type="text/css">
	.st0{fill-rule:evenodd;clip-rule:evenodd;fill:'fill';}
</style>
<path class="st0" d="M8.9,16.4h5.4c0.4,0,0.7-0.3,0.7-0.7c0-0.4-0.3-0.7-0.7-0.7H8.9c-0.4,0-0.7,0.3-0.7,0.7
	C8.2,16,8.5,16.4,8.9,16.4z M12.3,9.9H8.9c-0.4,0-0.7,0.3-0.7,0.8c0,0.4,0.3,0.7,0.7,0.7h3.3c0.4,0,0.7-0.3,0.7-0.7
	C13,10.2,12.7,9.9,12.3,9.9z M19.3,9c0.2,0,0.5,0,0.7,0c0.2,0,0.4,0.2,0.4,0.4v8c0,2.5-2,4.5-4.4,4.5H8.2c-2.6,0-4.7-2.1-4.7-4.7
	V6.5C3.5,4,5.5,2,8,2h5.3c0.3,0,0.5,0.2,0.5,0.5v3.2C13.7,7.5,15.2,9,17,9c0.4,0,0.8,0,1.1,0c0.3,0,0.5,0,0.7,0C19,9,19.1,9,19.3,9z
	 M19.6,7.6c-0.8,0-1.8,0-2.5,0c-1.1,0-2-0.9-2-2V2.9c0-0.4,0.5-0.6,0.8-0.3c0.5,0.6,1.3,1.3,2,2.1c0.7,0.8,1.5,1.5,2,2.1
	C20.2,7.1,20,7.6,19.6,7.6z"/>
</svg>
