<?xml version="1.0" encoding="utf-8"?>
<!-- Generator: Adobe Illustrator 25.0.0, SVG Export Plug-In . SVG Version: 6.00 Build 0)  -->
<svg version="1.1" id="Layer_1" xmlns="http://www.w3.org/2000/svg" xmlns:xlink="http://www.w3.org/1999/xlink" x="0px" y="0px"
	 viewBox="0 0 49 48" style="enable-background:new 0 0 49 48;" xml:space="preserve">
<style type="text/css">
	.st0{fill:#DEE9FF;stroke:#275FCC;stroke-width:2;}
	.st1{fill:#275FCC;}
</style>
<path class="st0" d="M24.9,1L24.9,1c12.7,0,23,10.3,23,23l0,0c0,12.7-10.3,23-23,23l0,0c-12.7,0-23-10.3-23-23l0,0
	C1.9,11.3,12.2,1,24.9,1z"/>
<path class="st1" d="M22.8,27.3h5L28.5,11h-6.4L22.8,27.3z M28.9,32.9c0-1.8-1.4-3.2-3.5-3.2c-2.1,0-3.5,1.4-3.5,3.2
	c0,1.7,1.4,3.1,3.5,3.1C27.5,36,28.9,34.6,28.9,32.9z"/>
</svg>
