<?xml version="1.0" encoding="utf-8"?>
<!-- Generator: Adobe Illustrator 25.0.0, SVG Export Plug-In . SVG Version: 6.00 Build 0)  -->
<svg version="1.1" id="Layer_1" xmlns="http://www.w3.org/2000/svg" xmlns:xlink="http://www.w3.org/1999/xlink" x="0px" y="0px"
	 viewBox="0 0 24 24" style="enable-background:new 0 0 24 24;" xml:space="preserve">
<style type="text/css">
	.st0{fill-rule:evenodd;clip-rule:evenodd;fill:#1C2560;}
</style>
<path class="st0" d="M8.4,3c0.4,0,0.8,0.3,0.8,0.7c0,0.4-0.3,0.7-0.8,0.7l-1.6,0c-1.4,0-2.5,1.1-2.5,2.4v1.9c0,0.4-0.3,0.7-0.8,0.7
	S2.8,9.2,2.8,8.8V6.9c0-2.1,1.8-3.9,4-3.9L8.4,3L8.4,3z M15.6,3h1.6c2.2,0,4,1.8,4,3.9v1.9c0,0.4-0.3,0.7-0.8,0.7
	c-0.4,0-0.8-0.3-0.8-0.7V6.9c0-1.3-1.1-2.4-2.5-2.4h-1.6c-0.4,0-0.8-0.3-0.8-0.7C14.8,3.3,15.2,3,15.6,3z M14.8,6.7H9.2
	C8,6.8,7,7.8,7,9v1.2c0,0.1,0.1,0.3,0.3,0.3h9.5c0.1,0,0.3-0.1,0.3-0.3V9c0-0.6-0.2-1.2-0.7-1.6C15.9,7,15.4,6.7,14.8,6.7z M1.8,12
	h20.5c0.4,0,0.8,0.3,0.8,0.7c0,0.4-0.3,0.7-0.8,0.7h-1.1v3.6c0,2.2-1.8,3.9-4,3.9h-1.6c-0.4,0-0.8-0.3-0.8-0.7
	c0-0.4,0.3-0.7,0.8-0.7h1.6c1.4,0,2.5-1.1,2.5-2.4v-3.6H17v1c0,1.2-1,2.3-2.3,2.3H9.2c-1.3,0-2.3-1-2.3-2.3v-1H4.3v3.6
	c0,1.3,1.1,2.4,2.5,2.4l1.6,0c0.4,0,0.8,0.3,0.8,0.7c0,0.4-0.3,0.7-0.8,0.7l-1.6,0c-2.2,0-4-1.8-4-3.9v-3.6H1.8
	c-0.4,0-0.8-0.3-0.8-0.7C1,12.4,1.3,12,1.8,12z"/>
</svg>
