<?xml version="1.0" encoding="utf-8"?>
<!-- Generator: Adobe Illustrator 25.0.0, SVG Export Plug-In . SVG Version: 6.00 Build 0)  -->
<svg version="1.1" id="Layer_1" xmlns="http://www.w3.org/2000/svg" xmlns:xlink="http://www.w3.org/1999/xlink" x="0px" y="0px"
	 viewBox="0 0 24 24" style="enable-background:new 0 0 24 24;" xml:space="preserve">
<style type="text/css">
	.st0{clip-path:url(#SVGID_2_);}
	.st1{fill:#1C2560;}
</style>
<g>
	<defs>
		<rect id="SVGID_1_" x="3" y="2" width="18.3" height="20"/>
	</defs>
	<clipPath id="SVGID_2_">
		<use xlink:href="#SVGID_1_"  style="overflow:visible;"/>
	</clipPath>
	<g class="st0">
		<path class="st1" d="M15.2,2c0.1,0,0.2,0.1,0.4,0.1c0.5,0.2,0.8,0.6,0.8,1.2c0.4,2.6,0.9,5.2,1.3,7.7c0.2,1-0.5,1.8-1.5,1.8
			c-2.7,0-5.3,0-8,0c-0.2,0-0.4,0-0.6,0c-0.8-0.2-1.3-0.9-1.2-1.7c0.4-2.4,0.8-4.8,1.3-7.2c0-0.2,0.1-0.5,0.1-0.7C8,2.6,8.4,2.2,9,2
			C9,2,9,2,9.1,2C11.1,2,13.2,2,15.2,2z"/>
		<path class="st1" d="M8.4,22c-0.4-0.1-0.6-0.4-0.7-0.8c-0.1-0.5,0.3-0.9,0.9-0.9c0.8,0,1.6,0,2.4,0c0.1,0,0.1,0,0.2,0
			c0-0.7,0-1.4,0-2.1c-0.1,0-0.1,0-0.2,0c-1.6,0-3.2,0-4.8,0c-0.8,0-1.7-0.7-1.7-1.6c0-0.8,0-1.6,0-2.4c0-0.6-0.3-0.9-0.9-0.9
			c-0.5,0-0.8-0.4-0.8-0.9c0-0.5,0.4-0.8,0.9-0.8c1.3,0.1,2.3,1,2.4,2.4c0,0.1,0,0.1,0,0.2c0.1,0,0.1,0,0.1-0.1
			c0.4-0.3,0.8-0.4,1.3-0.4c2.9,0,5.8,0,8.7,0c0.5,0,0.9,0.1,1.3,0.4c0,0,0.1,0,0.1,0.1c0-0.2,0-0.3,0-0.5c0.2-1.2,1.2-2.1,2.4-2.1
			c0.4,0,0.7,0.2,0.8,0.6c0,0,0,0.1,0,0.1c0,0.1,0,0.1,0,0.2c0,0.1,0,0.1,0,0.1c-0.1,0.3-0.4,0.6-0.7,0.6c-0.6,0-0.9,0.3-0.9,1
			c0,0.8,0,1.6,0,2.4c0,1-0.9,1.7-1.7,1.7c-1.6,0-3.2,0-4.7,0c-0.1,0-0.2,0-0.2,0c0,0.7,0,1.4,0,2.1c0.1,0,0.2,0,0.2,0
			c0.8,0,1.6,0,2.4,0c0.6,0,1,0.6,0.8,1.2c-0.1,0.3-0.3,0.4-0.6,0.5C13.4,22,10.9,22,8.4,22z"/>
	</g>
</g>
</svg>
