<?xml version="1.0" encoding="utf-8"?>
<!-- Generator: Adobe Illustrator 25.0.0, SVG Export Plug-In . SVG Version: 6.00 Build 0)  -->
<svg version="1.1" id="Layer_1" xmlns="http://www.w3.org/2000/svg" xmlns:xlink="http://www.w3.org/1999/xlink" x="0px" y="0px"
	 viewBox="0 0 24 24" style="enable-background:new 0 0 24 24;" xml:space="preserve">
<style type="text/css">
	.st0{fill-rule:evenodd;clip-rule:evenodd;fill:#1C2560;}
</style>
<path class="st0" d="M20.4,13.6c0.4,0.2,0.6,0.5,0.8,0.8c0.4,0.6,0.3,1.4,0,2l-0.7,1.2c-0.4,0.6-1.1,1-1.8,1c-0.4,0-0.8-0.1-1.1-0.3
	c-0.3-0.2-0.6-0.2-0.9-0.2c-1,0-1.9,0.8-1.9,1.8c0,1.1-0.9,2-2.1,2h-1.4c-1.2,0-2.1-0.9-2.1-2c0-1-0.9-1.8-1.9-1.8
	c-0.3,0-0.6,0.1-0.9,0.2c-0.3,0.2-0.7,0.3-1.1,0.3c-0.7,0-1.4-0.4-1.8-1l-0.7-1.2c-0.4-0.6-0.4-1.4,0-2c0.2-0.3,0.5-0.6,0.8-0.8
	c0.3-0.1,0.5-0.4,0.6-0.6c0.5-0.9,0.2-2-0.7-2.5c-1-0.6-1.3-1.8-0.8-2.8l0.7-1.2c0.6-1,1.9-1.3,2.9-0.8c0.9,0.5,2,0.2,2.6-0.7
	c0.2-0.3,0.3-0.6,0.2-0.9c0-0.4,0.1-0.8,0.3-1.1c0.4-0.6,1.1-1,1.8-1h1.4c0.8,0,1.4,0.4,1.8,1c0.2,0.3,0.3,0.7,0.3,1.1
	c0,0.3,0.1,0.6,0.2,0.9c0.5,0.8,1.7,1.2,2.6,0.7c1-0.6,2.3-0.2,2.9,0.8l0.7,1.2c0.6,1,0.3,2.3-0.8,2.8c-0.9,0.5-1.2,1.6-0.7,2.5
	C19.9,13.2,20.1,13.4,20.4,13.6z M9.1,12c0,1.6,1.3,2.8,2.9,2.8c1.6,0,2.9-1.2,2.9-2.8S13.6,9.2,12,9.2C10.4,9.2,9.1,10.4,9.1,12z"
	/>
</svg>
