<?xml version="1.0" encoding="utf-8"?>
<!-- Generator: Adobe Illustrator 25.0.0, SVG Export Plug-In . SVG Version: 6.00 Build 0)  -->
<svg version="1.1" id="Layer_1" xmlns="http://www.w3.org/2000/svg" xmlns:xlink="http://www.w3.org/1999/xlink" x="0px" y="0px"
	 viewBox="0 0 24 24" style="enable-background:new 0 0 24 24;" xml:space="preserve">
<style type="text/css">
	.st0{fill-rule:evenodd;clip-rule:evenodd;fill:'fill';}
</style>
<path class="st0" d="M16.2,8.2c0,2.3-1.9,4.2-4.2,4.2c-2.3,0-4.2-1.9-4.2-4.2C7.7,5.9,9.6,4,11.9,4C14.3,4,16.2,5.9,16.2,8.2z
	 M11.9,20c-3.4,0-6.4-0.5-6.4-2.7c0-2.2,2.9-2.7,6.4-2.7c3.4,0,6.4,0.5,6.4,2.7C18.3,19.4,15.4,20,11.9,20z M18,8.3
	c0,1.2-0.4,2.3-1,3.2c-0.1,0.1,0,0.2,0.1,0.2c0.2,0,0.3,0,0.5,0c1.6,0,3.1-1,3.5-2.6c0.6-2.4-1.2-4.5-3.4-4.5c-0.2,0-0.5,0-0.7,0.1
	c0,0-0.1,0-0.1,0c0,0,0,0.1,0,0.1C17.6,5.9,18,7.1,18,8.3z M20.7,13.5c1.1,0.2,1.8,0.7,2.1,1.3c0.3,0.5,0.3,1.1,0,1.7
	c-0.5,1-1.9,1.3-2.5,1.4c-0.1,0-0.2-0.1-0.2-0.2c0.3-2.8-2-4.1-2.7-4.4c0,0,0,0,0,0c0,0,0,0,0,0C18.7,13.2,20.2,13.4,20.7,13.5z
	 M6.4,11.8c0.2,0,0.3,0,0.5,0c0.1,0,0.2-0.1,0.1-0.2c-0.6-0.9-1-2-1-3.2c0-1.3,0.4-2.4,1.1-3.4c0,0,0-0.1,0-0.1c0,0-0.1,0-0.1,0
	c-0.2,0-0.5-0.1-0.7-0.1c-2.3,0-4,2.1-3.4,4.5C3.3,10.8,4.8,11.9,6.4,11.8z M6.6,13.3C6.6,13.3,6.6,13.3,6.6,13.3
	c-0.6,0.3-3,1.7-2.7,4.4c0,0.1-0.1,0.2-0.2,0.2c-0.6-0.1-2.1-0.4-2.5-1.4c-0.3-0.5-0.3-1.1,0-1.7c0.3-0.6,1-1.1,2.1-1.3
	C3.8,13.4,5.3,13.2,6.6,13.3C6.6,13.2,6.6,13.2,6.6,13.3z"/>
</svg>
