<?xml version="1.0" encoding="utf-8"?>
<!-- Generator: Adobe Illustrator 25.0.0, SVG Export Plug-In . SVG Version: 6.00 Build 0)  -->
<svg version="1.1" id="Layer_1" xmlns="http://www.w3.org/2000/svg" xmlns:xlink="http://www.w3.org/1999/xlink" x="0px" y="0px"
	 viewBox="0 0 24 24" style="enable-background:new 0 0 24 24;" xml:space="preserve">
<style type="text/css">
	.st0{fill-rule:evenodd;clip-rule:evenodd;fill:#1C2560;}
</style>
<path class="st0" d="M20.3,5.2C20.7,5.2,21,5.6,21,6v0.4c0,0.4-0.3,0.7-0.7,0.7H3.7C3.3,7.1,3,6.8,3,6.4V6c0-0.4,0.3-0.7,0.7-0.7
	h2.9c0.6,0,1.1-0.4,1.2-1L8,3.5C8.3,2.6,9,2,9.9,2h4.1c0.9,0,1.7,0.6,1.9,1.5l0.2,0.7c0.1,0.6,0.6,1,1.2,1H20.3z M18.8,19.1
	c0.3-2.8,0.8-9.6,0.8-9.6c0-0.2,0-0.4-0.2-0.6c-0.1-0.1-0.3-0.2-0.5-0.2H5.1c-0.2,0-0.4,0.1-0.5,0.2C4.4,9.1,4.3,9.3,4.4,9.5
	c0,0,0,0.2,0.1,0.6c0.1,1.8,0.5,6.7,0.8,9c0.2,1.7,1.3,2.8,2.9,2.8c1.3,0,2.5,0,3.9,0c1.2,0,2.5,0,3.8,0
	C17.5,21.9,18.6,20.9,18.8,19.1z"/>
</svg>
